<svg width="960" height="540" viewBox="0 0 960 540" fill="none" xmlns="http://www.w3.org/2000/svg">
<g clip-path="url(#clip0)">
<path d="M0 0H960V540H0V0Z" fill="#121212"/>
<path d="M0 348L120 367L240 399L360 376L480 404L600 328L720 351L840 322L960 363V541H0V348Z" fill="#00B74A"/>
<path opacity="0.1" d="M785.188 388.597C836.655 388.597 878.377 387.082 878.377 385.214C878.377 383.345 836.655 381.83 785.188 381.83C733.722 381.83 692 383.345 692 385.214C692 387.082 733.722 388.597 785.188 388.597Z" fill="#00B74A"/>
<path opacity="0.1" d="M760.69 193.143C766.626 187.753 775.945 186.655 784.428 187.084C811.071 188.433 835.121 201.538 855.925 216.362C863.456 221.728 870.871 227.512 875.76 234.902C885.711 249.945 882.759 270.786 868.921 283.179C864.213 287.396 858.506 290.628 852.646 293.494C842.228 298.589 830.987 302.679 819.163 303.843C810.731 304.673 802.195 303.998 793.812 302.84C770.392 299.603 747.402 292.447 728.134 280.204C719.683 274.834 711.718 268.158 708.234 259.471C704.751 250.784 706.98 239.776 715.61 234.634C719.179 232.507 723.446 231.547 727.624 230.645C733.773 229.317 740.021 228.008 745.57 225.31C751.302 222.522 758.089 217.132 756.954 210.962C755.737 204.342 754.76 198.527 760.69 193.143Z" fill="#00B74A"/>
<path opacity="0.1" d="M923.077 390C936.842 390 948 388.994 948 387.753C948 386.513 936.842 385.507 923.077 385.507C909.312 385.507 898.154 386.513 898.154 387.753C898.154 388.994 909.312 390 923.077 390Z" fill="#00B74A"/>
<path d="M821.986 263.453C821.58 262.653 819.435 257.68 819.435 257.68L815.841 248.19C815.841 248.19 813.29 244.189 813.29 243.446C813.29 242.703 808.652 239.73 808.652 239.73C808.652 239.73 804.884 238.587 804.594 238.472C804.304 238.358 799.84 236.854 799.84 236.854C799.84 236.854 798.082 234.498 797.832 235.113L797.831 235.115C797.822 235.1 797.813 235.086 797.804 235.07C797.445 234.386 797.217 233.639 797.134 232.868C797.124 232.8 797.116 232.727 797.107 232.656C798.265 231.856 799.214 230.781 799.872 229.524C800.53 228.266 800.877 226.864 800.883 225.439C800.883 225.064 800.858 224.689 800.809 224.317C800.841 224.297 800.874 224.279 800.909 224.264C800.981 224.232 800.963 224.206 800.91 224.179C800.928 224.169 800.946 224.159 800.964 224.151C801.06 224.108 800.996 224.076 800.903 224.038L800.909 224.035C801.04 223.977 800.874 223.939 800.741 223.877C800.734 223.838 800.728 223.798 800.72 223.759C800.749 223.684 800.767 223.604 800.773 223.523C800.785 223.529 800.796 223.536 800.808 223.541C800.84 223.394 800.84 223.241 800.806 223.094C800.797 223.124 800.787 223.153 800.776 223.182C800.784 223.049 800.757 222.916 800.698 222.797C800.638 222.678 800.549 222.577 800.438 222.505C800.431 222.499 800.424 222.493 800.417 222.487L800.663 219.922C804.289 219.748 804.925 213.464 804.098 213.115C803.271 212.765 804.098 212.009 804.098 210.496C804.098 208.983 801.363 207.296 801.363 207.296C801.363 207.296 800.218 207.878 798.437 204.968C796.656 202.059 790.105 201.594 789.66 202.35C789.215 203.106 786.289 204.096 782.473 205.201C778.657 206.307 779.357 210.903 779.993 211.893C780.517 212.71 780.823 213.653 780.883 214.627C780.883 215.209 782.091 217.653 782.091 217.653C781.71 218.5 782.68 223.139 782.968 224.458C782.963 224.498 782.958 224.538 782.954 224.579C782.952 224.583 782.949 224.587 782.946 224.591C782.933 224.612 782.92 224.634 782.909 224.657C782.848 224.794 782.827 224.946 782.851 225.094C782.83 225.257 782.852 225.422 782.915 225.572C782.937 226.814 783.219 228.037 783.742 229.16C784.266 230.282 785.018 231.277 785.95 232.078C785.955 232.158 785.959 232.238 785.963 232.319C786.017 233.396 786.047 234.67 785.991 235.889C785.988 235.951 785.984 236.012 785.98 236.074C785.77 236.117 785.573 236.211 785.404 236.346C785.235 236.481 785.101 236.655 785.01 236.854C784.651 237.558 782.564 238.644 782.564 238.644C782.564 238.644 778.911 238.815 778.563 239.501C778.216 240.187 772.94 242.474 772.94 242.474C772.94 242.474 770.157 244.132 770.563 246.018C770.775 247.004 770.18 248.535 769.563 249.774C768.273 249.275 766.93 248.934 765.561 248.757L768.516 251.638C768.455 251.736 768.418 251.792 768.418 251.792L766.737 257.851C766.737 257.851 766.157 259.966 765.577 260.481C764.998 260.995 766.099 265.683 766.099 265.683C766.099 265.683 765.461 268.998 764.94 269.856C764.418 270.713 765.751 272.828 765.751 272.828L768.418 279.002L775.491 280.832C775.491 280.832 775.962 280.933 776.724 281.099C776.7 281.247 776.675 281.394 776.65 281.54C776.309 283.507 775.862 285.316 775.317 285.805C773.984 287.005 774.042 292.379 774.042 292.379L774.099 299.982C774.099 299.982 774.563 309.357 774.331 309.7C774.185 309.916 774.479 310.269 775.254 310.587C775.232 310.728 775.21 310.871 775.189 311.017C774.971 312.572 774.874 314.346 775.375 315.13C775.592 315.555 775.711 316.024 775.723 316.502C775.723 317.245 776.824 318.789 776.824 318.789C776.824 318.789 775.955 325.134 777.404 327.306C778.853 329.479 780.071 333.423 779.375 334.338C779.375 334.338 778.158 337.024 778.737 338.225C779.317 339.425 778.737 340.111 777.984 340.397C777.23 340.683 777.295 343.027 777.295 343.027L778.679 354.174C778.679 354.174 779.433 356.46 778.795 357.261C778.158 358.061 778.158 362.063 779.143 363.435C780.129 364.806 777.752 367.322 777.752 367.322C777.752 367.322 776.302 369.437 778.621 370.123C778.621 370.123 779.085 370.237 778.216 371.152C777.346 372.066 777.172 373.21 777.752 373.61C777.872 373.683 777.998 373.747 778.128 373.8C778.106 373.936 778.083 374.076 778.056 374.225C777.833 375.418 777.413 376.973 776.65 377.726C775.172 379.269 773.896 381.002 772.854 382.88C772.059 384.416 771.711 385.855 772.592 386.529C774.679 388.13 777.346 388.644 778.911 388.015C780.477 387.386 782.68 385.443 782.68 385.443L783.201 383.213C783.201 383.213 782.854 381.842 784.593 381.327C786.332 380.813 787.955 378.983 787.955 378.983V376.02C788.376 375.775 788.783 375.504 789.173 375.21C789.173 375.21 789.984 372.295 789.173 371.323C788.361 370.351 788.071 370.008 789.115 369.38C790.158 368.751 790.3 367.379 789.534 366.178C788.767 364.978 787.549 363.206 788.593 360.691C789.636 358.175 790.019 350.458 790.019 350.458C790.019 350.458 789.532 345.199 790.019 343.999C790.506 342.798 789.463 340.397 789.463 340.397C789.463 340.397 789.81 337.425 790.448 336.053C791.086 334.681 791.608 327.421 791.608 327.421C791.608 327.421 792.767 324.334 792.767 322.333C792.767 320.332 790.97 315.531 793.637 314.273C793.637 314.273 794.796 315.302 794.332 319.418C794.332 319.418 795.666 324.22 795.666 325.706C795.666 327.192 796.651 332.566 796.651 332.566C796.651 332.566 796.767 334.281 797.173 334.909C797.579 335.538 797.173 337.253 797.173 337.253C797.173 337.253 798.68 338.682 798.275 339.597C797.869 340.512 798.344 342.574 798.344 342.574L797.985 355.374C797.985 355.374 796.941 360.862 799.376 364.178C799.376 364.178 798.506 369.037 797.985 369.38C797.463 369.723 799.898 372.695 799.898 372.695C799.898 372.695 799.223 374.621 800.593 374.715V377.897C801.069 378.754 801.722 379.495 802.507 380.069C803.782 380.984 803.26 384.128 803.26 384.128C803.26 384.128 804.884 388.13 809.174 387.272C813.464 386.415 814.043 386.015 813.811 384.585C813.728 384.064 813.543 383.134 813.276 382.077C812.814 380.241 812.107 378.025 811.261 376.932C809.927 375.211 808.826 371.609 808.826 371.609C808.826 371.609 808.304 370.409 808.826 370.009C809.348 369.608 809.116 368.865 809.116 368.865C809.116 368.865 809.623 367.379 809.167 366.464C808.71 365.55 810.043 363.663 810.043 363.663L809.637 354.86L810.043 342.055C810.043 342.055 808.246 339.94 809 338.682C809.753 337.425 808.13 335.653 808.13 335.653C808.13 335.653 807.956 335.595 808.42 334.166C808.697 333.324 808.656 332.407 808.304 331.594C808.304 331.594 807.318 328.05 809.058 325.363C809.058 325.363 809.811 321.819 810.043 319.989C810.203 318.718 811.205 313.969 811.801 311.191C811.835 311.034 811.867 310.883 811.898 310.74C812.756 310.787 813.406 310.843 813.406 310.843C813.406 310.843 812.072 301.411 813.406 299.467C814.739 297.524 812.362 282.661 812.362 282.661C812.362 282.661 811.794 280.063 811.444 277.413C811.424 277.262 811.406 277.111 811.387 276.96C812.464 276.873 813.544 276.848 814.623 276.887C817.406 277.059 820.131 275.973 820.189 274.886C820.247 273.8 821.754 269.513 821.986 268.541C822.218 267.569 822.392 264.254 821.986 263.453Z" fill="url(#paint0_linear)"/>
<path d="M788.158 373.731V379.024C788.158 379.024 786.594 380.845 784.918 381.357C783.242 381.87 783.577 383.236 783.577 383.236L783.075 385.455C783.075 385.455 780.952 387.39 779.444 388.016C777.935 388.643 775.366 388.13 773.355 386.537C772.506 385.865 772.841 384.433 773.607 382.903C774.606 381.04 775.835 379.316 777.265 377.772C778 377.023 778.405 375.475 778.619 374.286C778.778 373.396 778.829 372.706 778.829 372.706L788.158 373.731Z" fill="#4C495A"/>
<path opacity="0.1" d="M788.158 377.681V379.024C788.158 379.024 786.594 380.845 784.918 381.357C783.242 381.87 783.577 383.236 783.577 383.236L783.075 385.455C783.075 385.455 780.952 387.39 779.444 388.016C777.935 388.643 775.366 388.13 773.355 386.537C772.506 385.865 772.841 384.433 773.607 382.903C773.572 384.511 774.039 386.316 776.315 386.252C778.773 386.173 781.141 385.295 783.075 383.748C783.075 383.748 783.019 379.991 785.588 379.138C786.528 378.822 787.4 378.327 788.158 377.681V377.681Z" fill="black"/>
<path d="M808.603 387.277C804.47 388.13 802.906 384.146 802.906 384.146C802.906 384.146 803.408 381.016 802.179 380.105C801.419 379.528 800.791 378.79 800.336 377.942V372.706L805.363 369.064L808.085 371.518L808.268 371.682C808.268 371.682 809.33 375.267 810.614 376.982C811.43 378.07 812.112 380.276 812.556 382.104C812.813 383.156 812.992 384.082 813.072 384.602C813.296 386.024 812.737 386.423 808.603 387.277Z" fill="#4C495A"/>
<path opacity="0.1" d="M808.603 387.277C804.47 388.13 802.906 384.146 802.906 384.146C802.906 384.146 803.408 381.016 802.179 380.105C801.419 379.528 800.791 378.79 800.336 377.942V375.914C801.134 376.772 802.637 378.434 802.961 379.138C803.408 380.105 803.464 383.634 805.531 384.26C807.598 384.886 811.62 385.455 811.955 383.862C812.095 383.256 812.296 382.667 812.556 382.104C812.813 383.156 812.992 384.082 813.072 384.602C813.296 386.024 812.737 386.423 808.603 387.277Z" fill="black"/>
<path opacity="0.1" d="M778.829 372.706L788.158 373.731V376.529C787.106 377.164 785.597 377.838 784.751 377.146C783.499 376.126 779.779 374.83 778.619 374.286C778.778 373.396 778.829 372.706 778.829 372.706Z" fill="black"/>
<path opacity="0.1" d="M808.268 372.137C806.983 371.682 804.693 373.674 801.677 374.926C801.257 375.127 800.799 375.231 800.336 375.231V372.706L805.363 369.064L808.085 371.518C808.127 371.73 808.188 371.937 808.268 372.137Z" fill="black"/>
<path d="M811.564 309.473C811.564 309.473 811.388 310.311 811.135 311.527C810.561 314.293 809.596 319.021 809.441 320.287C809.218 322.108 808.492 325.637 808.492 325.637C806.816 328.312 807.765 331.841 807.765 331.841C808.105 332.653 808.145 333.563 807.877 334.402C807.43 335.825 807.598 335.882 807.598 335.882C807.598 335.882 809.162 337.646 808.436 338.898C807.71 340.151 809.441 342.256 809.441 342.256L809.05 355.006L809.441 363.77C809.441 363.77 808.157 365.649 808.597 366.559C809.037 367.47 808.548 368.95 808.548 368.95C808.548 368.95 808.771 369.69 808.268 370.088C807.765 370.487 808.268 371.682 808.268 371.682C806.983 371.226 804.693 373.218 801.677 374.471C798.66 375.723 799.666 372.763 799.666 372.763C799.666 372.763 797.319 369.804 797.822 369.462C798.325 369.121 799.163 364.283 799.163 364.283C796.817 360.982 797.822 355.518 797.822 355.518L798.168 342.773C798.168 342.773 797.71 340.72 798.101 339.809C798.492 338.898 797.04 337.476 797.04 337.476C797.04 337.476 797.431 335.768 797.04 335.142C796.649 334.516 796.537 332.808 796.537 332.808C796.537 332.808 795.588 327.458 795.588 325.979C795.588 324.499 794.303 319.718 794.303 319.718C794.75 315.62 793.633 314.596 793.633 314.596C791.063 315.848 792.795 320.629 792.795 322.621C792.795 324.613 791.677 327.686 791.677 327.686C791.677 327.686 791.175 334.914 790.56 336.28C789.946 337.646 789.61 340.606 789.61 340.606C789.61 340.606 790.616 342.996 790.147 344.192C789.678 345.387 790.147 350.623 790.147 350.623C790.147 350.623 789.778 358.307 788.773 360.811C787.767 363.315 788.94 365.08 789.68 366.275C790.417 367.47 790.281 368.836 789.275 369.462C788.27 370.088 788.549 370.43 789.331 371.397C790.113 372.365 789.331 375.267 789.331 375.267C789.331 375.267 786.147 377.829 784.751 376.69C783.354 375.552 778.885 374.072 778.326 373.674C777.768 373.275 777.935 372.137 778.773 371.226C779.611 370.316 779.164 370.202 779.164 370.202C776.93 369.519 778.326 367.413 778.326 367.413C778.326 367.413 780.617 364.909 779.667 363.543C778.717 362.177 778.717 358.193 779.332 357.396C779.946 356.599 779.22 354.323 779.22 354.323L777.886 343.224C777.886 343.224 777.824 340.89 778.55 340.606C779.276 340.321 779.835 339.638 779.276 338.443C778.717 337.248 779.891 334.573 779.891 334.573C780.561 333.662 779.388 329.735 777.991 327.572C776.595 325.409 777.433 319.092 777.433 319.092C777.433 319.092 776.371 317.555 776.371 316.815C776.361 316.34 776.246 315.873 776.036 315.449C775.553 314.668 775.647 312.902 775.857 311.354C776.061 309.856 776.371 308.562 776.371 308.562L811.564 309.473Z" fill="#5F5D7E"/>
<path d="M800.615 244.988L789.61 247.606C789.61 247.606 784.192 242.939 785.533 240.435C785.993 239.574 786.196 238.106 786.265 236.553C786.319 235.34 786.29 234.072 786.239 232.999C786.16 231.449 786.035 230.304 786.035 230.304C786.035 230.304 797.319 223.815 796.928 230.304C796.849 231.384 796.874 232.47 797.002 233.546C797.082 234.311 797.301 235.054 797.648 235.738C798.251 236.833 798.995 236.849 798.995 236.849L800.615 244.988Z" fill="#FDC2CC"/>
<path opacity="0.1" d="M797.002 233.546C795.412 234.708 793.482 235.287 791.527 235.188C789.572 235.088 787.708 234.317 786.239 232.999C786.16 231.449 786.035 230.304 786.035 230.304C786.035 230.304 797.319 223.815 796.928 230.304C796.849 231.384 796.874 232.47 797.002 233.546V233.546Z" fill="black"/>
<path d="M791.957 234.971C796.739 234.971 800.615 231.021 800.615 226.149C800.615 221.277 796.739 217.327 791.957 217.327C787.175 217.327 783.298 221.277 783.298 226.149C783.298 231.021 787.175 234.971 791.957 234.971Z" fill="#FDC2CC"/>
<path opacity="0.1" d="M800.615 244.988L789.61 247.606C789.61 247.606 784.192 242.939 785.533 240.435C785.993 239.574 786.196 238.106 786.265 236.553C786.508 237.903 787.22 239.119 788.27 239.979C790.784 241.687 790.393 243.793 790.393 243.793L794.917 243.622C794.638 241.744 796.314 240.719 796.872 240.492C797.431 240.264 797.152 239.239 797.152 239.239L797.648 235.738C798.251 236.833 798.995 236.849 798.995 236.849L800.615 244.988Z" fill="black"/>
<path opacity="0.1" d="M811.564 309.473C811.564 309.473 811.388 310.311 811.135 311.527C809.92 311.461 808.313 311.413 807.598 311.579C806.369 311.864 801.453 311.977 801.453 311.977L789.275 312.417V312.034C787.875 312.046 786.476 312.141 785.086 312.319C783.019 312.603 779.779 312.205 777.712 311.864C777.076 311.771 776.453 311.599 775.857 311.354C776.061 309.856 776.371 308.562 776.371 308.562L811.564 309.473Z" fill="black"/>
<path d="M810.614 273.332C810.438 274.395 810.568 276.157 810.791 277.896C811.128 280.535 811.676 283.121 811.676 283.121C811.676 283.121 813.966 297.919 812.681 299.854C811.397 301.79 812.681 311.181 812.681 311.181C812.681 311.181 808.827 310.839 807.598 311.124C806.369 311.408 801.453 311.522 801.453 311.522L789.275 311.962V311.579C787.875 311.591 786.476 311.686 785.086 311.864C783.019 312.148 779.779 311.75 777.712 311.408C775.645 311.067 774.807 310.384 775.031 310.042C775.254 309.701 774.807 300.367 774.807 300.367L774.751 292.797C774.751 292.797 774.695 287.447 775.98 286.252C776.505 285.764 776.937 283.964 777.265 282.006C777.737 279.171 777.991 276.007 777.991 276.007L769.5 252.842L769.333 252.387C769.333 252.387 771.791 248.517 771.4 246.638C771.009 244.76 773.69 243.11 773.69 243.11C773.69 243.11 778.773 240.833 779.109 240.15C779.444 239.467 782.963 239.296 782.963 239.296C782.963 239.296 784.974 238.215 785.32 237.514C785.405 237.318 785.534 237.145 785.696 237.01C785.859 236.875 786.051 236.782 786.257 236.737C786.493 238.104 787.209 239.337 788.27 240.207C790.784 241.914 790.393 244.02 790.393 244.02L794.917 243.85C794.638 241.971 796.314 240.947 796.873 240.719C797.431 240.492 797.152 239.467 797.152 239.467L797.675 235.781C797.916 235.169 799.61 237.514 799.61 237.514C799.61 237.514 803.911 239.012 804.19 239.126C804.47 239.239 808.101 240.378 808.101 240.378C808.101 240.378 812.57 243.337 812.57 244.077C812.57 244.817 815.028 248.801 815.028 248.801C815.028 248.801 814.998 248.961 814.945 249.252C814.377 252.389 811.023 270.884 810.614 273.332Z" fill="#00B74A"/>
<path d="M792.739 264.112C792.739 264.112 783.075 261.493 782.125 260.867C781.175 260.241 775.589 263.884 782.404 268.835C782.404 268.835 790.738 270.6 792.967 268.835C795.197 267.071 792.739 264.112 792.739 264.112Z" fill="#FDC2CC"/>
<path opacity="0.1" d="M813.631 248.517L814.804 248.574L818.268 258.022C818.268 258.022 820.334 262.973 820.725 263.77C821.116 264.567 820.949 267.868 820.725 268.835C820.502 269.803 819.05 274.072 818.994 275.153C818.938 276.235 816.312 277.316 813.631 277.145C810.95 276.974 804.693 277.828 804.693 277.828C804.693 277.828 798.011 277.117 793.912 279.251C793.912 279.251 791.286 273.73 791.566 263.429C791.566 263.429 796.202 263.144 797.375 263.599C798.548 264.055 804.246 265.364 804.972 264.681C805.699 263.998 808.995 265.933 808.995 265.933C809.162 265.558 809.249 265.15 809.249 264.738C809.249 264.325 809.162 263.918 808.995 263.542C808.436 262.176 807.486 257.908 808.715 256.542C809.944 255.176 813.631 248.517 813.631 248.517Z" fill="black"/>
<path opacity="0.1" d="M810.791 277.896C808.018 278.088 804.917 278.511 804.917 278.511C804.917 278.511 798.236 277.799 794.135 279.934C794.135 279.934 791.51 274.413 791.789 264.112C791.789 264.112 796.426 263.827 797.599 264.282C798.772 264.738 804.47 266.047 805.196 265.364C805.922 264.681 809.218 266.616 809.218 266.616C809.386 266.24 809.472 265.833 809.472 265.421C809.472 265.008 809.386 264.601 809.218 264.225C808.659 262.859 807.71 258.591 808.939 257.225C810.168 255.859 813.854 249.2 813.854 249.2L814.945 249.252C814.377 252.389 811.023 270.884 810.614 273.332C810.438 274.395 810.568 276.157 810.791 277.896Z" fill="black"/>
<path d="M813.854 248.744L815.028 248.801L818.491 258.249C818.491 258.249 820.558 263.201 820.949 263.998C821.34 264.794 821.172 268.096 820.949 269.063C820.725 270.031 819.273 274.299 819.217 275.381C819.161 276.462 816.536 277.544 813.854 277.373C811.173 277.202 804.917 278.056 804.917 278.056C804.917 278.056 798.235 277.344 794.135 279.479C794.135 279.479 791.51 273.958 791.789 263.656C791.789 263.656 796.426 263.372 797.599 263.827C798.772 264.282 804.47 265.591 805.196 264.908C805.922 264.225 809.218 266.16 809.218 266.16C809.386 265.785 809.472 265.378 809.472 264.965C809.472 264.553 809.386 264.145 809.218 263.77C808.659 262.404 807.71 258.135 808.939 256.769C810.168 255.403 813.854 248.744 813.854 248.744Z" fill="#00B74A"/>
<path d="M802.052 269.65L803.446 270.529L811.214 257.748L809.82 256.869L802.052 269.65Z" fill="#DFE6F5"/>
<path d="M815.197 256.017C816.569 253.758 816.422 251.132 814.867 250.151C813.312 249.17 810.938 250.206 809.565 252.465C808.193 254.723 808.34 257.35 809.895 258.331C811.45 259.312 813.824 258.276 815.197 256.017Z" fill="#DFE6F5"/>
<path opacity="0.1" d="M814.402 255.516C815.387 253.894 815.281 252.009 814.165 251.305C813.049 250.601 811.345 251.344 810.36 252.966C809.375 254.587 809.481 256.472 810.597 257.177C811.713 257.881 813.417 257.137 814.402 255.516Z" fill="black"/>
<path d="M798.082 276.183L799.476 277.062L804.309 269.109L802.915 268.23L798.082 276.183Z" fill="#53526B"/>
<path d="M789.89 276.747L793.297 275.779C793.297 275.779 810.112 276.235 804.47 269.177C804.47 269.177 801.509 266.274 795.308 268.608C789.108 270.941 787.376 271.226 787.376 271.226L789.89 276.747Z" fill="#FDC2CC"/>
<path opacity="0.1" d="M787.376 246.98C787.746 246.98 788.046 246.674 788.046 246.297C788.046 245.92 787.746 245.614 787.376 245.614C787.006 245.614 786.706 245.92 786.706 246.297C786.706 246.674 787.006 246.98 787.376 246.98Z" fill="black"/>
<path opacity="0.1" d="M798.884 246.582C799.254 246.582 799.554 246.276 799.554 245.899C799.554 245.521 799.254 245.216 798.884 245.216C798.513 245.216 798.213 245.521 798.213 245.899C798.213 246.276 798.513 246.582 798.884 246.582Z" fill="black"/>
<path d="M787.376 246.752C787.746 246.752 788.046 246.447 788.046 246.069C788.046 245.692 787.746 245.386 787.376 245.386C787.006 245.386 786.706 245.692 786.706 246.069C786.706 246.447 787.006 246.752 787.376 246.752Z" fill="white"/>
<path opacity="0.1" d="M788.326 256.428C788.696 256.428 788.996 256.122 788.996 255.745C788.996 255.368 788.696 255.062 788.326 255.062C787.955 255.062 787.655 255.368 787.655 255.745C787.655 256.122 787.955 256.428 788.326 256.428Z" fill="black"/>
<path opacity="0.1" d="M799.219 255.745C799.589 255.745 799.889 255.439 799.889 255.062C799.889 254.685 799.589 254.379 799.219 254.379C798.848 254.379 798.548 254.685 798.548 255.062C798.548 255.439 798.848 255.745 799.219 255.745Z" fill="black"/>
<path d="M788.326 256.2C788.696 256.2 788.996 255.894 788.996 255.517C788.996 255.14 788.696 254.834 788.326 254.834C787.955 254.834 787.655 255.14 787.655 255.517C787.655 255.894 787.955 256.2 788.326 256.2Z" fill="white"/>
<path opacity="0.1" d="M798.939 288.703C799.31 288.703 799.61 288.397 799.61 288.02C799.61 287.643 799.31 287.337 798.939 287.337C798.569 287.337 798.269 287.643 798.269 288.02C798.269 288.397 798.569 288.703 798.939 288.703Z" fill="black"/>
<path opacity="0.1" d="M790.117 288.703C790.487 288.703 790.787 288.397 790.787 288.02C790.787 287.643 790.487 287.337 790.117 287.337C789.747 287.337 789.447 287.643 789.447 288.02C789.447 288.397 789.747 288.703 790.117 288.703Z" fill="black"/>
<path d="M798.939 288.475C799.31 288.475 799.61 288.169 799.61 287.792C799.61 287.415 799.31 287.109 798.939 287.109C798.569 287.109 798.269 287.415 798.269 287.792C798.269 288.169 798.569 288.475 798.939 288.475Z" fill="white"/>
<path opacity="0.1" d="M790.787 300.139C791.158 300.139 791.458 299.833 791.458 299.456C791.458 299.079 791.158 298.773 790.787 298.773C790.417 298.773 790.117 299.079 790.117 299.456C790.117 299.833 790.417 300.139 790.787 300.139Z" fill="black"/>
<path opacity="0.1" d="M799.219 299.456C799.589 299.456 799.889 299.15 799.889 298.773C799.889 298.396 799.589 298.09 799.219 298.09C798.848 298.09 798.548 298.396 798.548 298.773C798.548 299.15 798.848 299.456 799.219 299.456Z" fill="black"/>
<path d="M790.787 299.911C791.158 299.911 791.458 299.606 791.458 299.228C791.458 298.851 791.158 298.545 790.787 298.545C790.417 298.545 790.117 298.851 790.117 299.228C790.117 299.606 790.417 299.911 790.787 299.911Z" fill="white"/>
<path d="M790.117 288.475C790.487 288.475 790.787 288.169 790.787 287.792C790.787 287.415 790.487 287.109 790.117 287.109C789.747 287.109 789.447 287.415 789.447 287.792C789.447 288.169 789.747 288.475 790.117 288.475Z" fill="white"/>
<path d="M799.219 299.228C799.589 299.228 799.889 298.923 799.889 298.545C799.889 298.168 799.589 297.862 799.219 297.862C798.848 297.862 798.548 298.168 798.548 298.545C798.548 298.923 798.848 299.228 799.219 299.228Z" fill="white"/>
<path d="M798.884 246.354C799.254 246.354 799.554 246.048 799.554 245.671C799.554 245.294 799.254 244.988 798.884 244.988C798.513 244.988 798.213 245.294 798.213 245.671C798.213 246.048 798.513 246.354 798.884 246.354Z" fill="white"/>
<path d="M799.219 255.517C799.589 255.517 799.889 255.211 799.889 254.834C799.889 254.457 799.589 254.151 799.219 254.151C798.848 254.151 798.548 254.457 798.548 254.834C798.548 255.211 798.848 255.517 799.219 255.517Z" fill="white"/>
<path opacity="0.1" d="M800.224 278.796C800.224 278.796 800.336 294.391 800.671 297.179C800.671 297.179 800.793 279.531 800.224 278.796Z" fill="black"/>
<path opacity="0.1" d="M803.073 286.024C802.843 286.024 807.654 304.294 807.877 305.603C808.101 306.912 804.414 286.024 803.073 286.024Z" fill="black"/>
<path opacity="0.1" d="M806.872 283.064C806.872 283.235 809.553 292.968 810.894 293.48C812.234 293.992 806.872 283.064 806.872 283.064Z" fill="black"/>
<path opacity="0.1" d="M817.43 264.112C817.43 264.112 811.732 264.37 811.564 265.208C811.397 266.047 817.43 264.112 817.43 264.112Z" fill="black"/>
<path opacity="0.1" d="M807.374 338.329C807.374 338.329 803.297 340.094 803.911 340.207C804.526 340.321 807.374 338.329 807.374 338.329Z" fill="black"/>
<path opacity="0.1" d="M798.939 335.711C798.781 335.347 801.677 337.191 801.677 337.419C801.677 337.646 799.163 336.223 798.939 335.711Z" fill="black"/>
<path opacity="0.1" d="M802.738 341.687C802.738 341.687 805.922 341.524 806.146 342.772C806.369 344.021 802.738 341.687 802.738 341.687Z" fill="black"/>
<path opacity="0.1" d="M779.835 341.68C779.835 341.68 783.298 340.99 783.577 341.68C783.857 342.37 779.835 341.68 779.835 341.68Z" fill="black"/>
<path opacity="0.1" d="M781.119 363.144C781.119 363.144 781.347 366.047 780.507 366.73C779.667 367.413 781.119 363.144 781.119 363.144Z" fill="black"/>
<path opacity="0.1" d="M780.697 369.291C781.79 369.405 787.544 368.381 787.488 369.291C787.432 370.202 780.697 369.291 780.697 369.291Z" fill="black"/>
<path opacity="0.1" d="M807.095 365.763C807.095 365.763 805.133 365.455 805.611 366.804L807.095 365.763Z" fill="black"/>
<path opacity="0.1" d="M770.618 252.159H769.556L767.936 258.192C767.936 258.192 767.378 260.298 766.819 260.81C766.26 261.323 767.322 265.99 767.322 265.99C767.322 265.99 766.707 269.291 766.205 270.145C765.702 270.998 766.987 273.104 766.987 273.104L769.556 279.251L776.371 281.072C776.371 281.072 788.382 283.747 788.94 284.146C789.499 284.544 790.002 283.975 790.393 280.276C790.784 276.576 791.845 269.405 792.683 269.063C792.683 269.063 785.98 269.803 785.421 269.689C784.862 269.575 782.181 269.746 782.181 269.746C782.181 269.746 778.662 269.518 778.103 269.86C777.544 270.201 778.829 268.207 778.829 268.207C779.064 267.294 779.064 266.334 778.829 265.421C778.438 263.884 778.215 246.468 770.618 252.159Z" fill="black"/>
<path opacity="0.1" d="M792.459 269.746C791.621 270.088 790.56 277.259 790.169 280.958C789.778 284.658 789.275 285.227 788.717 284.829C788.263 284.505 780.257 282.68 777.265 282.006C777.737 279.171 777.991 276.007 777.991 276.007L769.5 252.842H770.394C777.991 247.151 778.215 264.567 778.606 266.104C778.841 267.017 778.841 267.977 778.606 268.89C778.606 268.89 777.321 270.884 777.88 270.543C778.438 270.201 781.957 270.429 781.957 270.429C781.957 270.429 784.639 270.258 785.197 270.372C785.756 270.486 792.459 269.746 792.459 269.746Z" fill="black"/>
<path d="M770.394 252.387H769.333L767.713 258.42C767.713 258.42 767.154 260.526 766.596 261.038C766.037 261.55 767.098 266.217 767.098 266.217C767.098 266.217 766.484 269.518 765.981 270.372C765.478 271.226 766.763 273.332 766.763 273.332L769.333 279.479L776.148 281.3C776.148 281.3 788.158 283.975 788.717 284.373C789.275 284.772 789.778 284.203 790.169 280.503C790.56 276.804 791.622 269.632 792.459 269.291C792.459 269.291 785.756 270.031 785.197 269.917C784.639 269.803 781.957 269.974 781.957 269.974C781.957 269.974 778.438 269.746 777.88 270.088C777.321 270.429 778.606 268.435 778.606 268.435C778.841 267.521 778.841 266.562 778.606 265.648C778.215 264.112 777.991 246.695 770.394 252.387Z" fill="#00B74A"/>
<path opacity="0.1" d="M774.025 272.99C774.025 272.99 770.953 278.91 770.394 278.227C769.835 277.544 774.025 272.99 774.025 272.99Z" fill="black"/>
<path opacity="0.1" d="M770.841 269.62C770.841 269.62 767.992 272.023 769.333 272.649C770.673 273.275 770.841 269.62 770.841 269.62Z" fill="black"/>
<path opacity="0.1" d="M773.522 266.673C773.746 266.73 777.656 267.521 777.712 267.865C777.768 268.209 773.522 266.673 773.522 266.673Z" fill="black"/>
<path opacity="0.1" d="M800.64 224.979C800.518 225.022 800.415 225.106 800.345 225.217C800.276 225.327 800.245 225.458 800.258 225.589C800.03 225.794 799.71 225.552 799.525 225.291C799.337 225.031 799.125 224.71 798.841 224.746C798.706 224.79 798.575 224.846 798.45 224.913C798.003 225.058 797.625 224.523 797.375 224.054C796.94 223.233 796.504 222.411 796.068 221.591C795.194 222.108 794.162 221.566 793.295 221.031C792.428 220.496 791.396 219.952 790.52 220.469C789.235 221.225 789.188 223.745 787.856 224.366C787.427 224.567 786.929 224.523 786.531 224.799C786.138 225.072 785.926 225.598 785.749 226.101C785.684 226.387 785.531 226.645 785.311 226.836C785.172 226.911 785.017 226.949 784.86 226.948C784.465 227.016 784.059 226.958 783.698 226.782C783.509 226.661 783.366 226.477 783.293 226.262C783.219 226.047 783.221 225.812 783.296 225.598C783.306 225.575 783.318 225.553 783.332 225.532C783.475 225.356 783.603 225.168 783.716 224.97C783.85 224.608 783.658 224.186 783.7 223.795C783.77 223.126 784.464 222.773 784.583 222.115C784.632 221.857 784.581 221.582 784.628 221.322C784.634 221.288 784.643 221.255 784.654 221.222L784.246 221.509C784.704 220.965 784.934 220.209 785.269 219.549C785.641 218.826 786.154 218.188 786.775 217.672C787.396 217.157 788.114 216.775 788.884 216.551C790.341 216.118 791.881 216.236 793.351 216.603C794.749 216.958 796.088 217.52 797.326 218.272C797.768 218.513 798.161 218.839 798.484 219.23C798.754 219.636 798.984 220.069 799.17 220.521C799.603 221.436 800.787 222.283 799.844 222.411C799.06 222.518 799.775 223.078 800.186 223.456C800.279 223.53 800.359 223.619 800.423 223.72C800.491 223.864 800.523 224.023 800.514 224.183C800.505 224.342 800.457 224.497 800.374 224.633C800.215 224.838 800.859 224.879 800.64 224.979Z" fill="black"/>
<path d="M800.64 224.751C800.518 224.795 800.415 224.878 800.345 224.989C800.276 225.1 800.245 225.231 800.258 225.361C800.03 225.566 799.71 225.325 799.525 225.063C799.337 224.803 799.125 224.482 798.841 224.519C798.706 224.563 798.575 224.618 798.45 224.685C798.003 224.831 797.626 224.296 797.375 223.827C796.94 223.005 796.504 222.184 796.068 221.363C795.194 221.88 794.162 221.338 793.295 220.803C792.428 220.268 791.396 219.724 790.52 220.241C789.235 220.997 789.188 223.517 787.856 224.139C787.427 224.339 786.929 224.296 786.531 224.571C786.138 224.844 785.926 225.37 785.749 225.873C785.684 226.16 785.531 226.417 785.311 226.609C785.172 226.683 785.017 226.721 784.86 226.72C784.465 226.789 784.059 226.731 783.698 226.554C783.509 226.433 783.366 226.25 783.293 226.034C783.219 225.819 783.221 225.585 783.296 225.37C783.306 225.348 783.318 225.325 783.332 225.304C783.475 225.128 783.603 224.94 783.716 224.742C783.85 224.38 783.658 223.959 783.7 223.567C783.77 222.898 784.464 222.545 784.583 221.887C784.632 221.63 784.581 221.354 784.628 221.095C784.634 221.061 784.643 221.027 784.654 220.995L784.246 221.281C784.704 220.737 784.934 219.982 785.269 219.321C785.641 218.598 786.154 217.96 786.775 217.445C787.396 216.929 788.114 216.548 788.884 216.323C790.341 215.89 791.881 216.009 793.351 216.375C794.749 216.73 796.088 217.292 797.326 218.044C797.768 218.286 798.161 218.611 798.484 219.003C798.754 219.409 798.984 219.841 799.17 220.293C799.603 221.209 800.787 222.055 799.844 222.183C799.06 222.29 799.775 222.85 800.186 223.228C800.279 223.302 800.359 223.391 800.423 223.492C800.491 223.636 800.523 223.795 800.514 223.955C800.505 224.115 800.457 224.269 800.374 224.405C800.215 224.61 800.859 224.651 800.64 224.751Z" fill="#865A61"/>
<path opacity="0.1" d="M800.186 223.228L800.097 224.186C800.097 224.186 790.721 212.079 783.428 225.75C783.428 225.75 783.392 225.584 783.332 225.304C783.475 225.128 783.603 224.94 783.716 224.742C783.85 224.38 783.658 223.959 783.7 223.567C783.77 222.898 784.464 222.545 784.583 221.887C784.632 221.63 784.581 221.354 784.628 221.095C784.634 221.061 784.643 221.027 784.654 220.995L784.246 221.281C784.704 220.737 784.934 219.982 785.269 219.321C785.641 218.598 786.154 217.96 786.775 217.445C787.396 216.929 788.114 216.548 788.884 216.323C790.341 215.89 791.881 216.009 793.351 216.375C794.749 216.73 796.088 217.292 797.326 218.044C797.768 218.286 798.161 218.611 798.484 219.003C798.754 219.409 798.984 219.841 799.17 220.293C799.603 221.209 800.787 222.055 799.844 222.183C799.06 222.29 799.775 222.85 800.186 223.228Z" fill="black"/>
<g opacity="0.1">
<path opacity="0.1" d="M800.417 224.627C800.371 224.68 800.338 224.743 800.319 224.811C800.301 224.88 800.298 224.952 800.311 225.021C800.083 225.226 799.764 224.985 799.578 224.723C799.391 224.463 799.178 224.142 798.894 224.179C798.76 224.223 798.629 224.278 798.503 224.345C798.057 224.491 797.679 223.956 797.429 223.487C796.993 222.665 796.557 221.844 796.121 221.023C795.248 221.54 794.215 220.998 793.349 220.463C792.482 219.928 791.449 219.384 790.573 219.901C789.289 220.657 789.242 223.177 787.91 223.799C787.481 223.999 786.983 223.956 786.585 224.231C786.191 224.504 785.979 225.03 785.803 225.533C785.737 225.82 785.584 226.077 785.365 226.269C785.226 226.343 785.071 226.381 784.913 226.38C784.519 226.449 784.113 226.391 783.751 226.214C783.535 226.068 783.38 225.845 783.316 225.588C783.272 225.792 783.29 226.005 783.367 226.198C783.445 226.392 783.579 226.556 783.751 226.669C784.113 226.846 784.519 226.904 784.913 226.836C785.071 226.836 785.226 226.798 785.365 226.724C785.584 226.533 785.737 226.275 785.803 225.989C785.979 225.486 786.191 224.96 786.585 224.686C786.983 224.411 787.481 224.454 787.91 224.254C789.242 223.632 789.289 221.112 790.573 220.356C791.449 219.839 792.482 220.384 793.349 220.919C794.215 221.454 795.248 221.995 796.121 221.479C796.557 222.298 796.993 223.119 797.429 223.942C797.679 224.411 798.057 224.946 798.503 224.8C798.629 224.733 798.76 224.678 798.894 224.634C799.178 224.598 799.391 224.919 799.578 225.178C799.764 225.44 800.083 225.681 800.311 225.476C800.299 225.346 800.33 225.215 800.399 225.104C800.468 224.994 800.572 224.91 800.693 224.866C800.867 224.787 800.497 224.744 800.417 224.627Z" fill="black"/>
<path opacity="0.1" d="M799.687 222.353C799.754 222.325 799.825 222.307 799.898 222.298C800.313 222.242 800.315 222.046 800.151 221.766C800.072 221.809 799.986 221.835 799.898 221.843C799.449 221.904 799.492 222.114 799.687 222.353Z" fill="black"/>
<path opacity="0.1" d="M800.543 224.259C800.575 224.113 800.574 223.961 800.541 223.814C800.521 223.905 800.482 223.99 800.427 224.065C800.357 224.155 800.444 224.214 800.543 224.259Z" fill="black"/>
<path opacity="0.1" d="M783.767 223.604C783.762 223.63 783.757 223.655 783.754 223.682C783.744 223.887 783.759 224.093 783.798 224.294C783.825 224.064 783.815 223.831 783.767 223.604V223.604Z" fill="black"/>
<path opacity="0.1" d="M784.674 220.826C784.569 221.029 784.443 221.22 784.299 221.397L784.66 221.144C784.658 221.038 784.663 220.932 784.674 220.826V220.826Z" fill="black"/>
</g>
<path d="M783.427 225.523C783.427 225.523 782.079 219.382 782.508 218.397C782.508 218.397 781.344 215.964 781.344 215.385C781.287 214.418 780.992 213.481 780.486 212.662C779.873 211.677 779.199 207.1 782.876 205.999C786.553 204.899 789.372 203.914 789.801 203.161C790.23 202.408 796.542 202.871 798.258 205.768C799.974 208.664 801.077 208.085 801.077 208.085C801.077 208.085 803.713 209.765 803.713 211.271C803.713 212.778 802.916 213.531 803.713 213.878C804.509 214.226 803.896 220.483 800.403 220.656L800.097 223.959C800.097 223.959 790.72 211.851 783.427 225.523Z" fill="#00B74A"/>
<path opacity="0.1" d="M783.829 207.196C783.829 207.196 783.019 212.034 784.499 213.656L783.829 207.196Z" fill="black"/>
<path opacity="0.1" d="M787.627 206.086C787.627 206.086 785.56 211.265 786.063 212.261L787.627 206.086Z" fill="black"/>
<path opacity="0.1" d="M789.415 204.436C789.415 204.436 788.018 211.18 788.689 211.721L789.415 204.436Z" fill="black"/>
<path opacity="0.1" d="M791.817 206.257C791.817 206.257 790.085 210.583 790.784 211.18L791.817 206.257Z" fill="black"/>
<path opacity="0.1" d="M795.085 206.769C795.085 206.769 793.046 210.298 793.465 210.924L795.085 206.769Z" fill="black"/>
<path opacity="0.1" d="M799.275 210.213C799.275 210.213 797.096 210.81 797.543 211.522L799.275 210.213Z" fill="black"/>
<path opacity="0.1" d="M801.341 213.884C801.341 213.884 799.386 214.851 799.749 215.363L801.341 213.884Z" fill="black"/>
<path opacity="0.1" d="M782.508 218.397C782.508 218.397 794.996 213.229 800.403 220.656C800.403 220.656 793.84 214.971 782.508 218.397Z" fill="black"/>
<path d="M777.995 260.862L779.735 259.069L784.655 264.024L782.915 265.817L778.39 261.261L777.995 260.862Z" fill="#53526B"/>
<path d="M766.58 249.365C766.58 249.365 774.196 250.025 781.284 258.154L778.33 261.199L766.58 249.365Z" fill="#DFE6F5"/>
<path d="M789.423 263.9C789.423 263.9 782.103 261.181 781.384 260.531C780.665 259.881 776.433 263.663 781.595 268.805C781.595 268.805 787.908 270.638 789.596 268.805C791.285 266.973 789.423 263.9 789.423 263.9Z" fill="#FDC2CC"/>
<path d="M924.92 315.863H923.432V349.984H924.92V315.863Z" fill="#535461"/>
<path d="M934.269 349.88L934.174 351.417L934.043 353.585L933.988 354.49L933.857 356.661L933.8 357.566L933.668 359.735L932.167 384.405C932.103 385.467 931.644 386.463 930.883 387.192C930.123 387.92 929.118 388.325 928.074 388.325H920.278C919.234 388.325 918.23 387.92 917.47 387.191C916.71 386.463 916.251 385.467 916.187 384.405L914.684 359.735L914.552 357.566L914.498 356.661L914.364 354.49L914.309 353.585L914.178 351.417L914.083 349.88C914.065 349.585 914.107 349.29 914.206 349.012C914.304 348.734 914.458 348.479 914.656 348.264C914.855 348.049 915.095 347.877 915.361 347.76C915.627 347.643 915.914 347.583 916.204 347.583H932.15C932.44 347.583 932.727 347.643 932.993 347.76C933.259 347.878 933.499 348.049 933.697 348.264C933.896 348.48 934.049 348.734 934.147 349.012C934.245 349.29 934.287 349.585 934.269 349.88V349.88Z" fill="#65617D"/>
<path d="M934.174 351.417L934.043 353.585H914.309L914.177 351.417H934.174Z" fill="#9D9CB5"/>
<path d="M933.988 354.49L933.857 356.661H914.498L914.364 354.49H933.988Z" fill="#9D9CB5"/>
<path d="M933.8 357.566L933.668 359.735H914.684L914.552 357.566H933.8Z" fill="#9D9CB5"/>
<path d="M911.906 328.652C920.569 335.037 924.176 345.024 924.176 345.024C924.176 345.024 913.737 344.66 905.074 338.275C896.411 331.89 892.804 321.903 892.804 321.903C892.804 321.903 903.243 322.267 911.906 328.652Z" fill="#00B74A"/>
<path d="M892.804 321.903C892.804 321.903 903.639 328.031 907.115 333.104C910.59 338.176 924.176 345.024 924.176 345.024" stroke="#535461" stroke-width="2" stroke-miterlimit="10"/>
<path d="M917.497 315.788C922.213 319.263 924.176 324.699 924.176 324.699C924.176 324.699 918.494 324.5 913.779 321.025C909.064 317.55 907.1 312.114 907.1 312.114C907.1 312.114 912.782 312.312 917.497 315.788Z" fill="#00B74A"/>
<path d="M907.1 312.114C907.1 312.114 912.998 315.449 914.89 318.21C916.781 320.972 924.176 324.699 924.176 324.699" stroke="#535461" stroke-width="2" stroke-miterlimit="10"/>
<path d="M931.028 324.422C925.612 330.487 924.466 338.412 924.466 338.412C924.466 338.412 932.102 336.503 937.518 330.438C942.933 324.373 944.079 316.448 944.079 316.448C944.079 316.448 936.444 318.357 931.028 324.422Z" fill="#00B74A"/>
<path d="M944.079 316.448C944.079 316.448 937.024 322.665 935.231 326.949C933.439 331.232 924.466 338.412 924.466 338.412" stroke="#535461" stroke-width="2" stroke-miterlimit="10"/>
<path d="M0 414L120 383L240 394L360 401L480 371L600 422L720 371L840 413L960 386V541H0V414Z" fill="#00AA44"/>
<path d="M0 421L120 441L240 435L360 453L480 408L600 409L720 428L840 440L960 458V541H0V421Z" fill="#009D3F"/>
<path d="M0 444L120 455L240 442L360 464L480 446L600 442L720 463L840 484L960 452V541H0V444Z" fill="#00903A"/>
<path d="M0 477L120 508L240 495L360 486L480 500L600 498L720 486L840 487L960 512V541H0V477Z" fill="#008335"/>
</g>
<defs>
<linearGradient id="paint0_linear" x1="793.524" y1="388.276" x2="793.524" y2="202.029" gradientUnits="userSpaceOnUse">
<stop stop-color="#808080" stop-opacity="0.25"/>
<stop offset="0.53514" stop-color="#808080" stop-opacity="0.12"/>
<stop offset="1" stop-color="#808080" stop-opacity="0.1"/>
</linearGradient>
<clipPath id="clip0">
<rect width="960" height="540" fill="white"/>
</clipPath>
</defs>
</svg>
