<svg id="a658aab1-b68e-4d2a-94f7-9a6e4abf15c7" data-name="Layer 1" xmlns="http://www.w3.org/2000/svg" width="816.2" height="621" viewBox="0 0 816.21532 621"><path d="M 518.5 268.3 h -3 V 186.7 A 47.2 47.2 0 0 0 468.3 139.5 H 295.5 a 47.2 47.2 0 0 0 -47.2 47.2 V 634.2 a 47.2 47.2 0 0 0 47.2 47.2 H 468.3 a 47.2 47.2 0 0 0 47.2 -47.2 v -307.9 h 3 Z" transform="translate(-191.9,-139.5)" fill="#3f3d56"/><path d="M 470.2 151.8 H 447.7 A 16.8 16.8 0 0 1 432.2 174.9 H 333.1 a 16.8 16.8 0 0 1 -15.5 -23.1 H 296.6 A 35.3 35.3 0 0 0 261.3 187 V 633.9 a 35.3 35.3 0 0 0 35.3 35.3 H 470.2 a 35.3 35.3 0 0 0 35.3 -35.3 h 0 V 187 A 35.3 35.3 0 0 0 470.2 151.8 Z" transform="translate(-191.9,-139.5)" fill="#ffffff"/><path d="M 573.9 681.5 h -381 a 1 1 0 0 1 0 -2 h 381 a 1 1 0 0 1 0 2 Z" transform="translate(-191.9,-139.5)" fill="#cbcbcb"/><circle id="baf12095-0797-4180-a98d-6422936d747a" data-name="Ellipse 44" cx="191.5" cy="261.2" r="84.4" fill="#00b74a"/><path id="b582f34e-fd02-4670-b1d8-d23f069ed737" data-name="Path 395" d="M 375 432.9 a 8.8 8.8 0 0 1 -5.3 -1.8 l -0.1 -0.1 l -19.8 -15.2 a 8.8 8.8 0 1 1 10.7 -14 l 12.9 9.9 L 403.8 372.2 a 8.8 8.8 0 0 1 12.4 -1.6 l 0 0 l -0.2 0.3 l 0.2 -0.3 a 8.8 8.8 0 0 1 1.6 12.4 l -35.7 46.6 a 8.8 8.8 0 0 1 -7 3.4 Z" transform="translate(-191.9,-139.5)" fill="#ffffff"/><path d="M 886.1 689.8 a 26.3 26.3 0 0 1 3.6 -4.6 c 0.6 -0.6 1.2 -1.1 1.8 -1.7 a 28.1 28.1 0 0 1 46.4 16 c 4.1 -15.3 -6.6 -30.3 -17.4 -41.8 c -10.8 -11.5 -23.1 -24.2 -23.1 -40 c 0 -8.8 4.3 -16.6 10.8 -22.5 c 0.2 -0.2 0.4 -0.4 0.6 -0.5 a 41.1 41.1 0 0 1 28.3 -9.9 c 19.2 1 36 13.9 47.6 29.2 c 18.7 24.6 27 59.2 13.8 87.2 c -11.5 24.7 -36.1 39.3 -61.3 51.1 q -5.3 2.5 -10.5 4.8 c 0 0 0 0 -0.1 0 c -0.2 0.1 -0.3 0.1 -0.5 0.2 c -0.7 0.3 -1.4 0.6 -2.2 1 l 0.3 0.2 l 1 0.7 c -0.4 -0.2 -0.7 -0.4 -1.1 -0.6 c -0.1 -0.1 -0.2 -0.1 -0.3 -0.2 c -12.3 -7.4 -24.8 -15.2 -33.4 -26.8 C 881.9 719.7 878.3 702.5 886.1 689.8 Z" transform="translate(-191.9,-139.5)" fill="#f1f1f1"/><path d="M 968.4 661.9 a 69.8 69.8 0 0 1 5.4 19.5 a 60.6 60.6 0 0 1 -0.7 18 a 77.7 77.7 0 0 1 -15.6 33.3 a 111.8 111.8 0 0 1 -20.2 19.6 q -5.3 2.5 -10.5 4.8 c 0 0 0 0 -0.1 0 c -0.2 0.1 -0.3 0.1 -0.5 0.2 c -0.7 0.3 -1.4 0.6 -2.2 1 l 0.3 0.2 l 1 0.7 c -0.4 -0.2 -0.7 -0.4 -1.1 -0.6 c -0.1 -0.1 -0.2 -0.1 -0.3 -0.2 a 61.8 61.8 0 0 0 -11.2 -55.6 A 62.3 62.3 0 0 0 889.7 685.2 c 0.6 -0.6 1.2 -1.1 1.8 -1.7 a 64.6 64.6 0 0 1 9.9 5.7 a 63.3 63.3 0 0 1 24 31.7 a 64.7 64.7 0 0 1 1.4 36.2 c 0.6 -0.4 1.2 -0.8 1.8 -1.2 c 11.5 -7.7 22.1 -17.1 30.1 -28.5 a 72.3 72.3 0 0 0 12.8 -32.6 c 1.5 -12.8 -1.7 -25.5 -7.4 -36.9 a 151.3 151.3 0 0 0 -23.7 -33.7 a 171.9 171.9 0 0 0 -31.8 -27.3 a 1.2 1.2 0 0 1 -0.4 -1.7 a 1.1 1.1 0 0 1 0.6 -0.5 a 0.9 0.9 0 0 1 0.8 0.2 c 1.4 1 2.9 1.9 4.3 2.9 a 173.8 173.8 0 0 1 31.8 29 C 954.7 637.4 962.9 649.1 968.4 661.9 Z" transform="translate(-191.9,-139.5)" fill="#ffffff"/><circle id="ae2e9f9a-ed63-4994-961d-af4fbb6f5199" data-name="Ellipse 44" cx="525" cy="21.3" r="17.9" fill="#f1f1f1"/><circle id="b777be60-18da-4893-88a8-55a275d98bc2" data-name="Ellipse 44" cx="748" cy="268.3" r="10.9" fill="#f1f1f1"/><circle id="a703acd2-aa23-4bff-9a86-75b7d9a928c1" data-name="Ellipse 44" cx="428" cy="298.3" r="10.9" fill="#f1f1f1"/><path d="M 626.1 760.5 h 381 a 1 1 0 1 0 0 -2 h -381 a 1 1 0 0 0 0 2 Z" transform="translate(-191.9,-139.5)" fill="#cbcbcb"/><path d="M 965.1 236.1 a 14.7 14.7 0 0 0 -28.1 -7.4 l -30.9 35.4 l 9.1 25.3 l 31.1 -41.4 A 14.6 14.6 0 0 0 965.1 236.1 Z" transform="translate(-191.9,-139.5)" fill="#ffb7b7"/><polygon points="645,234.5 747.6,125 733.8,103 605.1,211.9 645,234.5" fill="#3f3d56"/><circle cx="622.1" cy="132" r="36" fill="#2f2e41"/><path d="M 816.9 251.2 A 75.5 75.5 0 0 1 844.4 233.4 c 6.6 -2.5 13.9 -4 20.8 -2.6 c 6.9 1.4 13.5 6.2 15.4 13 c 1.6 5.6 -0.1 11.6 -2.5 16.8 c -2.5 5.2 -5.7 10.1 -7.7 15.5 a 35.5 35.5 0 0 0 35.7 47.6 c -6.8 0.9 -13.1 4.1 -19.8 5.8 c -6.7 1.7 -14.5 1.6 -19.5 -3.2 c -5.2 -5.1 -5.3 -13.3 -5.1 -20.5 q 0.6 -16.2 1.1 -32.4 c 0.2 -5.5 0.4 -11.2 -1.6 -16.4 c -2 -5.1 -6.7 -9.7 -12.2 -9.6 c -4.2 0 -7.9 2.6 -11.2 5.1 c -3.4 2.5 -6.9 5.2 -11.1 5.5 c -4.2 0.4 -8.9 -2.7 -8.6 -6.9 Z" transform="translate(-191.9,-139.5)" fill="#2f2e41"/><path d="M 677.3 513.2 a 14.7 14.7 0 0 1 -11 -26.9 l 31.1 -35.3 l 26.3 5.7 l -37 36.2 a 14.6 14.6 0 0 1 -9.4 20.3 Z" transform="translate(-191.9,-139.5)" fill="#ffb7b7"/><polygon points="587.7,247.4 510.2,344.7 486.6,333.9 577.7,192 587.7,247.4" fill="#3f3d56"/><polygon points="525.8,541.2 507.4,540.9 509.6,603.9 525.8,603.9 525.8,541.2" fill="#ffb7b7"/><path d="M 721.9 738.1 l -32 0 h 0 A 20.4 20.4 0 0 0 669.5 758.5 v 0.7 l 52.4 0 Z" transform="translate(-191.9,-139.5)" fill="#2f2e41"/><polygon points="648.2,524.5 628,537.5 668.4,586 682,577.3 648.2,524.5" fill="#ffb7b7"/><path d="M 874.5 710 L 847.6 727.3 l 0 0 a 20.4 20.4 0 0 0 -6.1 28.2 l 0.4 0.6 l 44.1 -28.3 Z" transform="translate(-191.9,-139.5)" fill="#2f2e41"/><path d="M 847.2 471.7 s -44.8 -148.9 -59.2 -150.9 s -37.6 38.2 -37.6 38.2 c -30.1 38.4 -61.1 162.8 -61.1 162.8 s 51.7 3.2 89.6 23.4 s 82.5 -1 82.5 -1 Z" transform="translate(-191.9,-139.5)" fill="#3f3d56"/><path d="M 847.2 471.7 s -44.8 -148.9 -59.2 -150.9 s -31.7 38.6 -31.7 38.6 c -15 62 -67 162.4 -67 162.4 s 51.7 3.2 89.6 23.4 s 82.5 -1 82.5 -1 Z" transform="translate(-191.9,-139.5)" opacity="0.1" style="isolation: isolate"/><polygon points="618.6,287.7 618.6,362.5 627.4,470.9 671.4,552.9 650.4,567.9 590.4,489.9 566.6,412.5 529.4,583.9 501.4,581.9 520.8,344.2 557.7,277.3 618.6,287.7" fill="#2f2e41"/><path d="M 765.2 354.8 c -14 14 -1 29 -1 29 l -16 36 l 63 17 l 22 -98.4 l -15 -16 c -30 -1 -30 -1.6 -30 -1.6 C 783 325.9 765.2 354.8 765.2 354.8 Z" transform="matrix(1,0,0,1,-191.9,-139.5)" fill="rgb(0, 124, 183)"/><path d="M 835.8 328.2 a 26.9 26.9 0 0 0 -37.8 5.9 c -15.8 22.1 -30.5 57.7 -10.3 102.1 c 32.4 71.3 60.6 107.8 72.1 107.8 a 4.6 4.6 0 0 0 1.5 -0.2 c 7.1 -2.4 17.3 -14.3 19.1 -24.9 c 0.7 -3.8 0.5 -9 -4 -12.6 c -12.9 -10.3 -36.2 -42.6 -43.4 -85 c -4 -23.4 3.8 -44.8 11 -58.5 a 26.9 26.9 0 0 0 -7.8 -34.3 h 0 Z" transform="translate(-191.9,-139.5)" fill="#3f3d56"/><circle cx="803.1" cy="280.7" r="26.5" transform="translate(-228.1,280.1) rotate(-28.7)" fill="#ffb7b7"/><path d="M 765.9 278.7 h 38.3 l 0.4 -5.5 l 2 5.5 h 5.9 l 0.8 -10.9 l 3.9 10.9 h 11.4 v -0.5 a 28.6 28.6 0 0 0 -28.6 -28.6 h -5.4 A 28.6 28.6 0 0 0 765.9 278.2 Z" transform="translate(-191.9,-139.5)" fill="#2f2e41"/><path d="M 822.7 298.5 L 839 293.2 V 253.5 H 808.2 l 0.8 0.8 C 819.5 264.9 831.4 302.5 822.7 298.5 Z" transform="translate(-191.9,-139.5)" fill="#2f2e41"/></svg>