<svg id="visual" viewBox="0 0 960 540" width="960" height="540" xmlns="http://www.w3.org/2000/svg" xmlns:xlink="http://www.w3.org/1999/xlink" version="1.1"><rect x="0" y="0" width="960" height="540" fill="#00B74A"></rect><path d="M0 222L137 136L274 222L411 138L549 134L686 205L823 204L960 189L960 0L823 0L686 0L549 0L411 0L274 0L137 0L0 0Z" fill="#00aa44"></path><path d="M0 155L137 121L274 155L411 131L549 180L686 157L823 165L960 171L960 0L823 0L686 0L549 0L411 0L274 0L137 0L0 0Z" fill="#00a341"></path><path d="M0 92L137 102L274 133L411 99L549 90L686 134L823 123L960 133L960 0L823 0L686 0L549 0L411 0L274 0L137 0L0 0Z" fill="#009d3f"></path><path d="M0 88L137 59L274 50L411 78L549 78L686 55L823 92L960 103L960 0L823 0L686 0L549 0L411 0L274 0L137 0L0 0Z" fill="#00963d"></path><path d="M0 40L137 28L274 32L411 34L549 29L686 31L823 56L960 33L960 0L823 0L686 0L549 0L411 0L274 0L137 0L0 0Z" fill="#00903a"></path></svg>