<svg width="960" height="540" xmlns="http://www.w3.org/2000/svg">
  <path fill="#121212" d="M0 0h960v540H0z" />
  <path d="M0 348l120 19 120 32 120-23 120 28 120-76 120 23 120-29 120 41v178H0z" fill="#00b74a" />
  <path d="M0 414l120-31 120 11 120 7 120-30 120 51 120-51 120 42 120-27v155H0z" fill="#0a4" />
  <path d="M0 421l120 20 120-6 120 18 120-45 120 1 120 19 120 12 120 18v83H0z" fill="#009d3f" />
  <path d="M0 444l120 11 120-13 120 22 120-18 120-4 120 21 120 21 120-32v89H0z" fill="#00903a" />
  <path d="M0 477l120 31 120-13 120-9 120 14 120-2 120-12 120 1 120 25v29H0z" fill="#008335" />
</svg>