<svg xmlns="http://www.w3.org/2000/svg" xmlns:xlink="http://www.w3.org/1999/xlink" style="margin:auto;background:#00b74a;z-index:1;position:relative" width="1084" height="322" preserveAspectRatio="xMidYMid" display="block"><defs><pattern id="prefix__pid-0_6218428877648847" x="0" y="0" width="76.8" height="76.8" patternUnits="userSpaceOnUse"><g transform="scale(.3)"><defs><g id="prefix__id-0_3751650546848069"><style>.prefix__st14,.prefix__st30{stroke:#333;stroke-width:3.5;stroke-miterlimit:10}.prefix__st14{stroke-linecap:round;fill:none}.prefix__st30{fill:#fff}</style><path class="prefix__st30" d="M89.9 34.3c-1-8.6-7.6-15.7-16.1-17.4-4.5-.9-8.7-.2-12.3 1.5-3.1-5.1-8.6-8.5-15-8.5-7.3 0-13.5 4.5-16.1 10.8-2.8-.7-5.9-.7-9.1.5-6.8 2.5-11.4 8.7-11.3 15.9.2 8.9 7.4 16.1 16.3 16.2v32.3c0 2.4 2 4.4 4.4 4.4h36.4c2.4 0 4.4-2 4.4-4.4V56.9C82.7 56 91.2 46 89.9 34.3zM34 51.5c-2.2 1.1-4.8 1.8-7.5 1.8" data-fill="c1" data-stroke="c2" fill="#fff" stroke="#333"/><path class="prefix__st30" d="M62.5 55.6c2.3.9 4.7 1.4 7.3 1.4.6 0 1.1 0 1.7-.1" data-fill="c1" data-stroke="c2" fill="#fff" stroke="#333"/><path class="prefix__st14" data-stroke="c2" stroke="#333" d="M40 66.2v13.9M57.2 66.2v13.9"/></g></defs><path fill="#fff" data-fill="c3" d="M95.261 98.953L73.345 96.2l.875-5.623 20.241 3.147z" transform="translate(-128 -128)" data-idx="0"/><path fill="#fff" data-fill="c3" d="M95.261 98.953L73.345 96.2l.875-5.623 20.241 3.147z" transform="translate(128 -128)" data-idx="0"/><path fill="#fff" d="M38.105 224.49l-.149-.001a10.946 10.946 0 01-7.748-3.33c-4.239-4.352-4.147-11.342.205-15.581a10.957 10.957 0 017.833-3.124 10.95 10.95 0 017.748 3.33c4.239 4.352 4.147 11.342-.205 15.58a10.945 10.945 0 01-7.684 3.126zm-.007-16.996c-1.567 0-3.044.6-4.169 1.695a5.984 5.984 0 00-.111 8.453 5.938 5.938 0 004.204 1.806 5.949 5.949 0 004.25-1.695 5.985 5.985 0 00.112-8.453 5.938 5.938 0 00-4.204-1.806h-.082z" data-fill="c3" transform="translate(-128 -128)" data-idx="1"/><path fill="#fff" d="M38.105 224.49l-.149-.001a10.946 10.946 0 01-7.748-3.33c-4.239-4.352-4.147-11.342.205-15.581a10.957 10.957 0 017.833-3.124 10.95 10.95 0 017.748 3.33c4.239 4.352 4.147 11.342-.205 15.58a10.945 10.945 0 01-7.684 3.126zm-.007-16.996c-1.567 0-3.044.6-4.169 1.695a5.984 5.984 0 00-.111 8.453 5.938 5.938 0 004.204 1.806 5.949 5.949 0 004.25-1.695 5.985 5.985 0 00.112-8.453 5.938 5.938 0 00-4.204-1.806h-.082z" data-fill="c3" transform="translate(128 -128)" data-idx="1"/><circle transform="rotate(-43.537 10.228 143.773)" fill="#fff" cx="234.5" cy="47.5" data-fill="c3" r="4.4" data-idx="2"/><circle transform="rotate(-43.537 138.233 -176.771)" fill="#fff" cx="234.5" cy="47.5" data-fill="c3" r="4.4" data-idx="2"/><path fill="#fff" d="M156.299 159.176l-1.714-5.053c3.929-1.333 6.042-5.614 4.709-9.543a7.475 7.475 0 00-3.796-4.331 7.472 7.472 0 00-5.747-.378l-1.714-5.053a12.779 12.779 0 019.822.646 12.777 12.777 0 016.488 7.402c2.278 6.716-1.332 14.032-8.048 16.31z" data-fill="c3" transform="translate(-128 -128)" data-idx="3"/><path fill="#fff" d="M156.299 159.176l-1.714-5.053c3.929-1.333 6.042-5.614 4.709-9.543a7.475 7.475 0 00-3.796-4.331 7.472 7.472 0 00-5.747-.378l-1.714-5.053a12.779 12.779 0 019.822.646 12.777 12.777 0 016.488 7.402c2.278 6.716-1.332 14.032-8.048 16.31z" data-fill="c3" transform="translate(128 -128)" data-idx="3"/><circle transform="rotate(-43.537 -121.775 245.772)" fill="#fff" cx="102.5" cy="149.5" data-fill="c3" r="4.4" data-idx="4"/><circle transform="rotate(-43.537 6.23 -74.772)" fill="#fff" cx="102.5" cy="149.5" data-fill="c3" r="4.4" data-idx="4"/><path fill="#fff" data-fill="c3" d="M231.486 249.178l15.579-13.301 5.792 2.909-17.677 14.719z" transform="translate(-128 -128)" data-idx="5"/><path fill="#fff" data-fill="c3" d="M231.486 249.178l15.579-13.301 5.792 2.909-17.677 14.719z" transform="translate(128 -128)" data-idx="5"/><path fill="#fff" data-fill="c3" d="M115.367 21.954l-11.406 21.06-3.722-6.123 10.192-17.768z" transform="translate(-128 -128)" data-idx="6"/><path fill="#fff" data-fill="c3" d="M115.367 21.954l-11.406 21.06-3.722-6.123 10.192-17.768z" transform="translate(128 -128)" data-idx="6"/><path fill="#fff" d="M222.104 130.57l-.132-.001a9.654 9.654 0 01-6.835-2.937c-3.74-3.84-3.659-10.006.181-13.746a9.666 9.666 0 016.91-2.756 9.655 9.655 0 016.835 2.938c3.74 3.839 3.659 10.006-.181 13.745a9.653 9.653 0 01-6.778 2.757zm-.005-14.994a5.24 5.24 0 00-3.678 1.496 5.28 5.28 0 00-.098 7.458 5.242 5.242 0 003.708 1.594 5.242 5.242 0 003.749-1.495 5.28 5.28 0 00.098-7.457 5.242 5.242 0 00-3.708-1.594c-.024-.002-.048-.002-.071-.002z" data-fill="c3" transform="translate(-128 -128)" data-idx="7"/><path fill="#fff" d="M222.104 130.57l-.132-.001a9.654 9.654 0 01-6.835-2.937c-3.74-3.84-3.659-10.006.181-13.746a9.666 9.666 0 016.91-2.756 9.655 9.655 0 016.835 2.938c3.74 3.839 3.659 10.006-.181 13.745a9.653 9.653 0 01-6.778 2.757zm-.005-14.994a5.24 5.24 0 00-3.678 1.496 5.28 5.28 0 00-.098 7.458 5.242 5.242 0 003.708 1.594 5.242 5.242 0 003.749-1.495 5.28 5.28 0 00.098-7.457 5.242 5.242 0 00-3.708-1.594c-.024-.002-.048-.002-.071-.002z" data-fill="c3" transform="translate(128 -128)" data-idx="7"/><path fill="#fff" d="M184.509 10.022l-4.015 1.058a5.861 5.861 0 00-7.154-4.17 5.818 5.818 0 00-3.567 2.713 5.808 5.808 0 00-.603 4.44l-4.015 1.058a9.941 9.941 0 011.031-7.589 9.942 9.942 0 016.096-4.637c5.337-1.406 10.821 1.792 12.227 7.127z" data-fill="c3" transform="translate(-128 -128)" data-idx="8"/><path fill="#fff" d="M184.509 10.022l-4.015 1.058a5.861 5.861 0 00-7.154-4.17 5.818 5.818 0 00-3.567 2.713 5.808 5.808 0 00-.603 4.44l-4.015 1.058a9.941 9.941 0 011.031-7.589 9.942 9.942 0 016.096-4.637c5.337-1.406 10.821 1.792 12.227 7.127z" data-fill="c3" transform="translate(128 -128)" data-idx="8"/><use xlink:href="#prefix__id-0_3751650546848069" x="-50" y="-50" transform="rotate(7.617 -712.783 -4.796) scale(.8755)" data-idx="9"/><use xlink:href="#prefix__id-0_3751650546848069" x="-50" y="-50" transform="matrix(.8678 .116 -.116 .8678 249.076 94.4)" data-idx="9"/><use xlink:href="#prefix__id-0_3751650546848069" x="-50" y="-50" transform="matrix(-.028 .6148 -.6148 -.028 33.257 -52.826)" data-idx="10"/><use xlink:href="#prefix__id-0_3751650546848069" x="-50" y="-50" transform="matrix(-.028 .6148 -.6148 -.028 289.257 -52.826)" data-idx="10"/><use xlink:href="#prefix__id-0_3751650546848069" x="-50" y="-50" transform="matrix(.3972 -.543 .543 .3972 87.308 65.082)" data-idx="11"/><use xlink:href="#prefix__id-0_3751650546848069" x="-50" y="-50" transform="matrix(.3972 -.543 .543 .3972 343.308 65.082)" data-idx="11"/><use xlink:href="#prefix__id-0_3751650546848069" x="-50" y="-50" transform="rotate(-118.352 -66.167 -21.333) scale(.7715)" data-idx="12" data-dup="b"/><use xlink:href="#prefix__id-0_3751650546848069" x="-50" y="-50" transform="rotate(-118.352 61.83 -97.71) scale(.7715)" data-idx="12" data-dup="b"/><use xlink:href="#prefix__id-0_3751650546848069" x="-50" y="-50" transform="rotate(-42.429 -26.428 122.49) scale(.7839)" data-idx="13" data-dup="r"/><use xlink:href="#prefix__id-0_3751650546848069" x="-50" y="-50" transform="rotate(-42.429 101.557 -207.252) scale(.7839)" data-idx="13" data-dup="r"/><path fill="#fff" data-fill="c3" d="M95.261 98.953L73.345 96.2l.875-5.623 20.241 3.147z" transform="translate(-128 128)" data-idx="0"/><path fill="#fff" data-fill="c3" d="M95.261 98.953L73.345 96.2l.875-5.623 20.241 3.147z" transform="translate(128 128)" data-idx="0"/><path fill="#fff" d="M38.105 224.49l-.149-.001a10.946 10.946 0 01-7.748-3.33c-4.239-4.352-4.147-11.342.205-15.581a10.957 10.957 0 017.833-3.124 10.95 10.95 0 017.748 3.33c4.239 4.352 4.147 11.342-.205 15.58a10.945 10.945 0 01-7.684 3.126zm-.007-16.996c-1.567 0-3.044.6-4.169 1.695a5.984 5.984 0 00-.111 8.453 5.938 5.938 0 004.204 1.806 5.949 5.949 0 004.25-1.695 5.985 5.985 0 00.112-8.453 5.938 5.938 0 00-4.204-1.806h-.082z" data-fill="c3" transform="translate(-128 128)" data-idx="1"/><path fill="#fff" d="M38.105 224.49l-.149-.001a10.946 10.946 0 01-7.748-3.33c-4.239-4.352-4.147-11.342.205-15.581a10.957 10.957 0 017.833-3.124 10.95 10.95 0 017.748 3.33c4.239 4.352 4.147 11.342-.205 15.58a10.945 10.945 0 01-7.684 3.126zm-.007-16.996c-1.567 0-3.044.6-4.169 1.695a5.984 5.984 0 00-.111 8.453 5.938 5.938 0 004.204 1.806 5.949 5.949 0 004.25-1.695 5.985 5.985 0 00.112-8.453 5.938 5.938 0 00-4.204-1.806h-.082z" data-fill="c3" transform="translate(128 128)" data-idx="1"/><circle transform="rotate(-43.537 330.772 271.777)" fill="#fff" cx="234.5" cy="47.5" data-fill="c3" r="4.4" data-idx="2"/><circle transform="rotate(-43.537 458.777 -48.767)" fill="#fff" cx="234.5" cy="47.5" data-fill="c3" r="4.4" data-idx="2"/><path fill="#fff" d="M156.299 159.176l-1.714-5.053c3.929-1.333 6.042-5.614 4.709-9.543a7.475 7.475 0 00-3.796-4.331 7.472 7.472 0 00-5.747-.378l-1.714-5.053a12.779 12.779 0 019.822.646 12.777 12.777 0 016.488 7.402c2.278 6.716-1.332 14.032-8.048 16.31z" data-fill="c3" transform="translate(-128 128)" data-idx="3"/><path fill="#fff" d="M156.299 159.176l-1.714-5.053c3.929-1.333 6.042-5.614 4.709-9.543a7.475 7.475 0 00-3.796-4.331 7.472 7.472 0 00-5.747-.378l-1.714-5.053a12.779 12.779 0 019.822.646 12.777 12.777 0 016.488 7.402c2.278 6.716-1.332 14.032-8.048 16.31z" data-fill="c3" transform="translate(128 128)" data-idx="3"/><circle transform="rotate(-43.537 198.77 373.777)" fill="#fff" cx="102.5" cy="149.5" data-fill="c3" r="4.4" data-idx="4"/><circle transform="rotate(-43.537 326.774 53.233)" fill="#fff" cx="102.5" cy="149.5" data-fill="c3" r="4.4" data-idx="4"/><path fill="#fff" data-fill="c3" d="M231.486 249.178l15.579-13.301 5.792 2.909-17.677 14.719z" transform="translate(-128 128)" data-idx="5"/><path fill="#fff" data-fill="c3" d="M231.486 249.178l15.579-13.301 5.792 2.909-17.677 14.719z" transform="translate(128 128)" data-idx="5"/><path fill="#fff" data-fill="c3" d="M115.367 21.954l-11.406 21.06-3.722-6.123 10.192-17.768z" transform="translate(-128 128)" data-idx="6"/><path fill="#fff" data-fill="c3" d="M115.367 21.954l-11.406 21.06-3.722-6.123 10.192-17.768z" transform="translate(128 128)" data-idx="6"/><path fill="#fff" d="M222.104 130.57l-.132-.001a9.654 9.654 0 01-6.835-2.937c-3.74-3.84-3.659-10.006.181-13.746a9.666 9.666 0 016.91-2.756 9.655 9.655 0 016.835 2.938c3.74 3.839 3.659 10.006-.181 13.745a9.653 9.653 0 01-6.778 2.757zm-.005-14.994a5.24 5.24 0 00-3.678 1.496 5.28 5.28 0 00-.098 7.458 5.242 5.242 0 003.708 1.594 5.242 5.242 0 003.749-1.495 5.28 5.28 0 00.098-7.457 5.242 5.242 0 00-3.708-1.594c-.024-.002-.048-.002-.071-.002z" data-fill="c3" transform="translate(-128 128)" data-idx="7"/><path fill="#fff" d="M222.104 130.57l-.132-.001a9.654 9.654 0 01-6.835-2.937c-3.74-3.84-3.659-10.006.181-13.746a9.666 9.666 0 016.91-2.756 9.655 9.655 0 016.835 2.938c3.74 3.839 3.659 10.006-.181 13.745a9.653 9.653 0 01-6.778 2.757zm-.005-14.994a5.24 5.24 0 00-3.678 1.496 5.28 5.28 0 00-.098 7.458 5.242 5.242 0 003.708 1.594 5.242 5.242 0 003.749-1.495 5.28 5.28 0 00.098-7.457 5.242 5.242 0 00-3.708-1.594c-.024-.002-.048-.002-.071-.002z" data-fill="c3" transform="translate(128 128)" data-idx="7"/><path fill="#fff" d="M184.509 10.022l-4.015 1.058a5.861 5.861 0 00-7.154-4.17 5.818 5.818 0 00-3.567 2.713 5.808 5.808 0 00-.603 4.44l-4.015 1.058a9.941 9.941 0 011.031-7.589 9.942 9.942 0 016.096-4.637c5.337-1.406 10.821 1.792 12.227 7.127z" data-fill="c3" transform="translate(-128 128)" data-idx="8"/><path fill="#fff" d="M184.509 10.022l-4.015 1.058a5.861 5.861 0 00-7.154-4.17 5.818 5.818 0 00-3.567 2.713 5.808 5.808 0 00-.603 4.44l-4.015 1.058a9.941 9.941 0 011.031-7.589 9.942 9.942 0 016.096-4.637c5.337-1.406 10.821 1.792 12.227 7.127z" data-fill="c3" transform="translate(128 128)" data-idx="8"/><use xlink:href="#prefix__id-0_3751650546848069" x="-50" y="-50" transform="rotate(7.617 -2636.374 123.29) scale(.8755)" data-idx="9"/><use xlink:href="#prefix__id-0_3751650546848069" x="-50" y="-50" transform="matrix(.8678 .116 -.116 .8678 249.076 350.4)" data-idx="9"/><use xlink:href="#prefix__id-0_3751650546848069" x="-50" y="-50" transform="matrix(-.028 .6148 -.6148 -.028 33.257 203.174)" data-idx="10"/><use xlink:href="#prefix__id-0_3751650546848069" x="-50" y="-50" transform="matrix(-.028 .6148 -.6148 -.028 289.257 203.174)" data-idx="10"/><use xlink:href="#prefix__id-0_3751650546848069" x="-50" y="-50" transform="matrix(.3972 -.543 .543 .3972 87.308 321.082)" data-idx="11"/><use xlink:href="#prefix__id-0_3751650546848069" x="-50" y="-50" transform="matrix(.3972 -.543 .543 .3972 343.308 321.082)" data-idx="11"/><use xlink:href="#prefix__id-0_3751650546848069" x="-50" y="-50" transform="rotate(-118.352 10.21 106.665) scale(.7715)" data-idx="12" data-dup="b"/><use xlink:href="#prefix__id-0_3751650546848069" x="-50" y="-50" transform="rotate(-118.352 138.208 30.288) scale(.7715)" data-idx="12" data-dup="b"/><use xlink:href="#prefix__id-0_3751650546848069" x="-50" y="-50" transform="rotate(-42.429 303.315 250.476) scale(.7839)" data-idx="13" data-dup="r"/><use xlink:href="#prefix__id-0_3751650546848069" x="-50" y="-50" transform="rotate(-42.429 431.3 -79.267) scale(.7839)" data-idx="13" data-dup="r"/></g></pattern></defs><path fill="url(#prefix__pid-0_6218428877648847)" d="M0 0h1084v322H0z"/></svg>