<svg id="visual" viewBox="0 0 675 900" width="675" height="900" xmlns="http://www.w3.org/2000/svg" xmlns:xlink="http://www.w3.org/1999/xlink" version="1.1"><path d="M0 145L28.2 140.5C56.3 136 112.7 127 169 121C225.3 115 281.7 112 337.8 115C394 118 450 127 506.2 127C562.3 127 618.7 118 646.8 113.5L675 109L675 0L646.8 0C618.7 0 562.3 0 506.2 0C450 0 394 0 337.8 0C281.7 0 225.3 0 169 0C112.7 0 56.3 0 28.2 0L0 0Z" fill="#4acf75"></path><path d="M0 280L28.2 283C56.3 286 112.7 292 169 295C225.3 298 281.7 298 337.8 292C394 286 450 274 506.2 266.5C562.3 259 618.7 256 646.8 254.5L675 253L675 107L646.8 111.5C618.7 116 562.3 125 506.2 125C450 125 394 116 337.8 113C281.7 110 225.3 113 169 119C112.7 125 56.3 134 28.2 138.5L0 143Z" fill="#30c360"></path><path d="M0 406L28.2 409C56.3 412 112.7 418 169 415C225.3 412 281.7 400 337.8 391C394 382 450 376 506.2 373C562.3 370 618.7 370 646.8 370L675 370L675 251L646.8 252.5C618.7 254 562.3 257 506.2 264.5C450 272 394 284 337.8 290C281.7 296 225.3 296 169 293C112.7 290 56.3 284 28.2 281L0 278Z" fill="#00b74a"></path><path d="M0 622L28.2 628C56.3 634 112.7 646 169 652C225.3 658 281.7 658 337.8 647.5C394 637 450 616 506.2 602.5C562.3 589 618.7 583 646.8 580L675 577L675 368L646.8 368C618.7 368 562.3 368 506.2 371C450 374 394 380 337.8 389C281.7 398 225.3 410 169 413C112.7 416 56.3 410 28.2 407L0 404Z" fill="#009e41"></path><path d="M0 901L28.2 901C56.3 901 112.7 901 169 901C225.3 901 281.7 901 337.8 901C394 901 450 901 506.2 901C562.3 901 618.7 901 646.8 901L675 901L675 575L646.8 578C618.7 581 562.3 587 506.2 600.5C450 614 394 635 337.8 645.5C281.7 656 225.3 656 169 650C112.7 644 56.3 632 28.2 626L0 620Z" fill="#008638"></path></svg>