<svg width="100" height="100" viewBox="0 0 100 100" fill="none" xmlns="http://www.w3.org/2000/svg">
<rect x="33.5" y="29.5" width="33" height="43" rx="3.5" fill="white" stroke="white"/>
<path d="M33 32C33 29.7909 34.7909 28 37 28H63C65.2091 28 67 29.7909 67 32V33H33V32Z" fill="#39733B"/>
<rect x="33.375" y="28.375" width="33.25" height="44.25" rx="3.625" stroke="#81C784" stroke-width="0.75"/>
<path d="M41 41C40.7348 41 40.4804 41.1054 40.2929 41.2929C40.1054 41.4804 40 41.7348 40 42V46V47.5C40 49.19 41.03 50.63 42.5 51.22V57.5C42.5 57.8978 42.658 58.2794 42.9393 58.5607C43.2206 58.842 43.6022 59 44 59C44.3978 59 44.7794 58.842 45.0607 58.5607C45.342 58.2794 45.5 57.8978 45.5 57.5V51.22C46.97 50.63 48 49.19 48 47.5V46V42C48 41.7348 47.8946 41.4804 47.7071 41.2929C47.5196 41.1054 47.2652 41 47 41C46.7348 41 46.4804 41.1054 46.2929 41.2929C46.1054 41.4804 46 41.7348 46 42V46C46 46.1326 45.9473 46.2598 45.8536 46.3536C45.7598 46.4473 45.6326 46.5 45.5 46.5C45.3674 46.5 45.2402 46.4473 45.1464 46.3536C45.0527 46.2598 45 46.1326 45 46V42C45 41.7348 44.8946 41.4804 44.7071 41.2929C44.5196 41.1054 44.2652 41 44 41C43.7348 41 43.4804 41.1054 43.2929 41.2929C43.1054 41.4804 43 41.7348 43 42V46C43 46.1326 42.9473 46.2598 42.8536 46.3536C42.7598 46.4473 42.6326 46.5 42.5 46.5C42.3674 46.5 42.2402 46.4473 42.1464 46.3536C42.0527 46.2598 42 46.1326 42 46V42C42 41.7348 41.8946 41.4804 41.7071 41.2929C41.5196 41.1054 41.2652 41 41 41V41ZM57.88 41C57.75 41 57.62 41.09 57.5 41.16L54 43.25V47H50V49H51L52 59H58L59 49H60V47H56V44.34L58.5 42.84C59 42.56 59.13 42 58.84 41.5C58.63 41.14 58.26 40.95 57.88 41Z" fill="#4CAF50"/>
<rect width="24" height="24" transform="translate(55 61)" fill="white"/>
<path d="M78 72H73C72.7348 72 72.4804 72.1054 72.2929 72.2929C72.1054 72.4804 72 72.7348 72 73V82C72 82.2652 72.1054 82.5196 72.2929 82.7071C72.4804 82.8946 72.7348 83 73 83H78C78.2652 83 78.5196 82.8946 78.7071 82.7071C78.8946 82.5196 79 82.2652 79 82V73C79 72.7348 78.8946 72.4804 78.7071 72.2929C78.5196 72.1054 78.2652 72 78 72ZM78 81H73V74H78V81ZM75 63H57C55.89 63 55 63.89 55 65V77C55 77.5304 55.2107 78.0391 55.5858 78.4142C55.9609 78.7893 56.4696 79 57 79H64V81H62V83H70V81H68V79H70V77H57V65H75V70H77V65C77 63.89 76.1 63 75 63Z" fill="#39733B"/>
<path d="M46.3856 32.2393C46.2811 32.2393 46.1894 32.2108 46.1106 32.154C46.0317 32.099 45.9694 32.0202 45.9236 31.9175C45.8796 31.8148 45.8576 31.6947 45.8576 31.5572C45.8576 31.4161 45.8796 31.2731 45.9236 31.1282C45.9694 30.9834 46.0308 30.845 46.1078 30.713C46.1848 30.581 46.2719 30.4637 46.3691 30.361C46.4662 30.2565 46.5689 30.174 46.6771 30.1135C46.7852 30.053 46.8916 30.0227 46.9961 30.0227C47.0657 30.0227 47.1207 30.0337 47.1611 30.0557H47.1281C47.0327 30.0557 46.9365 30.0878 46.8393 30.152C46.7421 30.2143 46.6496 30.2996 46.5616 30.4077C46.4736 30.5141 46.3947 30.6342 46.3251 30.768C46.2554 30.9 46.2004 31.0375 46.1601 31.1805C46.1197 31.3235 46.0996 31.4619 46.0996 31.5958C46.0996 31.6929 46.1115 31.7837 46.1353 31.868C46.161 31.9523 46.2013 32.0193 46.2563 32.0688C46.3113 32.1201 46.3819 32.1458 46.4681 32.1458C46.5707 32.1458 46.667 32.1137 46.7568 32.0495C46.8466 31.9872 46.9273 31.9019 46.9988 31.7937C47.0721 31.6856 47.1345 31.5655 47.1858 31.4335C47.239 31.2997 47.2793 31.1622 47.3068 31.021C47.3361 30.878 47.3508 30.7414 47.3508 30.6113C47.3508 30.5599 47.3471 30.5049 47.3398 30.4463C47.3325 30.3876 47.3196 30.3372 47.3013 30.295C47.283 30.2528 47.2582 30.2317 47.2271 30.2317C47.1941 30.2317 47.1583 30.2528 47.1198 30.295C47.0813 30.3353 47.0437 30.3867 47.0071 30.449C46.9722 30.5113 46.9411 30.5764 46.9136 30.6442C46.8861 30.7102 46.8668 30.7689 46.8558 30.8202C46.81 30.8092 46.7761 30.7918 46.7541 30.768C46.7339 30.7423 46.7238 30.7148 46.7238 30.6855C46.7238 30.636 46.7403 30.5819 46.7733 30.5232C46.8081 30.4627 46.8512 30.405 46.9026 30.35C46.9557 30.2932 47.0107 30.2473 47.0676 30.2125C47.1244 30.1758 47.1757 30.1575 47.2216 30.1575C47.2692 30.1575 47.3077 30.1749 47.3371 30.2097C47.3682 30.2446 47.3921 30.2895 47.4086 30.3445C47.4269 30.3977 47.4388 30.4554 47.4443 30.5177C47.4516 30.5782 47.4553 30.6351 47.4553 30.6882C47.4553 30.8881 47.4324 31.0705 47.3866 31.2355C47.3426 31.3987 47.2821 31.5426 47.2051 31.6672C47.1299 31.7919 47.0456 31.8973 46.9521 31.9835C46.8586 32.0678 46.7623 32.1311 46.6633 32.1733C46.5661 32.2173 46.4736 32.2393 46.3856 32.2393ZM47.9594 32.0715C47.8971 32.0715 47.8476 32.055 47.8109 32.022C47.7761 31.989 47.7586 31.9459 47.7586 31.8927C47.7586 31.8377 47.7715 31.78 47.7971 31.7195C47.8228 31.659 47.8476 31.5994 47.8714 31.5407C47.8971 31.4802 47.9099 31.4262 47.9099 31.3785C47.9099 31.3198 47.8925 31.2767 47.8576 31.2492C47.8246 31.2199 47.7907 31.1933 47.7559 31.1695C47.7137 31.2777 47.6697 31.3803 47.6239 31.4775C47.5781 31.5747 47.5405 31.648 47.5111 31.6975L47.4864 31.6507C47.5121 31.6031 47.5451 31.5334 47.5854 31.4417C47.6276 31.3501 47.6688 31.2456 47.7091 31.1282C47.6908 31.1099 47.6816 31.0879 47.6816 31.0622C47.6816 31.0072 47.6972 30.9623 47.7284 30.9275C47.7596 30.8927 47.7825 30.8752 47.7971 30.8752C47.8173 30.8752 47.8283 30.8844 47.8301 30.9027C47.8338 30.9192 47.8356 30.9321 47.8356 30.9412C47.8356 30.9504 47.8301 30.9687 47.8191 30.9962C47.81 31.0219 47.8054 31.0375 47.8054 31.043C47.8054 31.0687 47.8191 31.0925 47.8466 31.1145C47.876 31.1347 47.909 31.1585 47.9456 31.186C47.9823 31.2117 48.0144 31.2437 48.0419 31.2822C48.0712 31.3189 48.0859 31.3666 48.0859 31.4252C48.0859 31.4802 48.074 31.5362 48.0501 31.593C48.0281 31.6498 48.0052 31.7039 47.9814 31.7552C47.9594 31.8066 47.9484 31.8515 47.9484 31.89C47.9484 31.923 47.9566 31.945 47.9731 31.956C47.9896 31.967 48.0089 31.9725 48.0309 31.9725C48.0749 31.9725 48.1198 31.9587 48.1656 31.9312C48.2133 31.9037 48.2591 31.8689 48.3031 31.8267C48.3471 31.7846 48.3866 31.7406 48.4214 31.6947C48.4562 31.6471 48.4819 31.6031 48.4984 31.5627L48.5341 31.5902C48.4993 31.6672 48.4516 31.7433 48.3911 31.8185C48.3306 31.8918 48.2628 31.9523 48.1876 32C48.1143 32.0477 48.0382 32.0715 47.9594 32.0715ZM48.6019 32.0825C48.5561 32.0825 48.5103 32.0642 48.4644 32.0275C48.4186 31.9908 48.3957 31.9322 48.3957 31.8515C48.3957 31.791 48.4104 31.7232 48.4397 31.648C48.469 31.5728 48.5084 31.4986 48.5579 31.4252C48.6074 31.3501 48.6643 31.2813 48.7284 31.219C48.7926 31.1548 48.8595 31.1044 48.9292 31.0677C48.9989 31.0292 49.0676 31.01 49.1354 31.01C49.2161 31.01 49.2564 31.0384 49.2564 31.0952C49.2564 31.1026 49.2555 31.109 49.2537 31.1145C49.2537 31.12 49.2528 31.1264 49.2509 31.1337C49.2326 31.1062 49.1978 31.0925 49.1464 31.0925C49.0878 31.0925 49.03 31.1108 48.9732 31.1475C48.9182 31.1823 48.8669 31.2291 48.8192 31.2877C48.7734 31.3446 48.733 31.406 48.6982 31.472C48.6634 31.538 48.6359 31.6022 48.6157 31.6645C48.5974 31.725 48.5882 31.7763 48.5882 31.8185C48.5882 31.8588 48.5974 31.8909 48.6157 31.9147C48.634 31.9386 48.6579 31.9505 48.6872 31.9505C48.7367 31.9505 48.7963 31.9193 48.8659 31.857C48.9374 31.7947 49.0099 31.7067 49.0832 31.593C49.1565 31.4793 49.2225 31.3464 49.2812 31.1942C49.3215 31.0879 49.3628 30.9797 49.4049 30.8697C49.4489 30.7597 49.4929 30.6543 49.5369 30.5535C49.5809 30.4508 49.6231 30.3601 49.6634 30.2812C49.7056 30.2006 49.745 30.1373 49.7817 30.0915C49.8202 30.0438 49.8541 30.02 49.8834 30.02C49.8981 30.02 49.9109 30.0264 49.9219 30.0392C49.9329 30.0502 49.9384 30.0649 49.9384 30.0832C49.9384 30.1126 49.9229 30.163 49.8917 30.2345C49.8624 30.3042 49.8229 30.3885 49.7734 30.4875C49.7258 30.5847 49.6754 30.691 49.6222 30.8065C49.569 30.922 49.5177 31.0393 49.4682 31.1585C49.4205 31.2777 49.3811 31.3932 49.3499 31.505C49.3206 31.615 49.3059 31.7158 49.3059 31.8075C49.3059 31.8588 49.3087 31.8973 49.3142 31.923C49.3197 31.9487 49.338 31.9615 49.3692 31.9615C49.4077 31.9615 49.4526 31.945 49.5039 31.912C49.5553 31.879 49.6066 31.8322 49.6579 31.7717C49.7093 31.7112 49.7542 31.6388 49.7927 31.5545L49.8257 31.5792C49.7909 31.6727 49.7432 31.7571 49.6827 31.8322C49.6222 31.9056 49.5571 31.9633 49.4874 32.0055C49.4196 32.0495 49.3545 32.0715 49.2922 32.0715C49.2244 32.0715 49.1767 32.0486 49.1492 32.0028C49.1235 31.9587 49.1107 31.9129 49.1107 31.8652C49.1107 31.8341 49.1153 31.7928 49.1244 31.7415C49.1336 31.6902 49.1464 31.6333 49.1629 31.571C49.1043 31.6682 49.0419 31.7562 48.9759 31.835C48.9099 31.912 48.8449 31.9725 48.7807 32.0165C48.7184 32.0605 48.6588 32.0825 48.6019 32.0825ZM50.0365 32.121C49.9247 32.121 49.8403 32.0898 49.7835 32.0275C49.7285 31.967 49.701 31.8918 49.701 31.802C49.701 31.7195 49.7212 31.6324 49.7615 31.5407C49.8037 31.4491 49.8587 31.3629 49.9265 31.2822C49.9962 31.2016 50.0723 31.1365 50.1548 31.087C50.2373 31.0357 50.3188 31.01 50.3995 31.01C50.4417 31.01 50.4802 31.021 50.515 31.043C50.5517 31.065 50.57 31.1099 50.57 31.1777C50.57 31.2474 50.5489 31.3134 50.5068 31.3757C50.4664 31.4362 50.4123 31.4903 50.3445 31.538C50.2785 31.5857 50.2052 31.6251 50.1245 31.6562C50.0457 31.6856 49.9668 31.7039 49.888 31.7112C49.8843 31.7296 49.8816 31.747 49.8798 31.7635C49.8779 31.78 49.877 31.7956 49.877 31.8102C49.877 31.8671 49.8917 31.9202 49.921 31.9697C49.9522 32.0174 50.0099 32.0413 50.0943 32.0413C50.1731 32.0413 50.251 32.0193 50.328 31.9752C50.405 31.9294 50.4765 31.8698 50.5425 31.7965C50.6085 31.7232 50.6644 31.6425 50.7103 31.5545L50.7433 31.5792C50.6938 31.6892 50.6305 31.7846 50.5535 31.8652C50.4783 31.9459 50.3958 32.0083 50.306 32.0523C50.218 32.0981 50.1282 32.121 50.0365 32.121ZM49.9018 31.659C49.9513 31.6425 50.0072 31.6187 50.0695 31.5875C50.1318 31.5545 50.1914 31.516 50.2483 31.472C50.3069 31.428 50.3546 31.3794 50.3913 31.3262C50.4298 31.2731 50.449 31.2172 50.449 31.1585C50.449 31.1383 50.4453 31.1227 50.438 31.1117C50.4307 31.1007 50.4151 31.0952 50.3913 31.0952C50.3473 31.0952 50.3005 31.1127 50.251 31.1475C50.2015 31.1805 50.1538 31.2245 50.108 31.2795C50.0622 31.3345 50.0209 31.395 49.9843 31.461C49.9476 31.527 49.9201 31.593 49.9018 31.659ZM51.131 32.0715C51.0687 32.0715 51.0192 32.055 50.9825 32.022C50.9477 31.989 50.9303 31.9459 50.9303 31.8927C50.9303 31.8377 50.9431 31.78 50.9688 31.7195C50.9944 31.659 51.0192 31.5994 51.043 31.5407C51.0687 31.4802 51.0815 31.4262 51.0815 31.3785C51.0815 31.3198 51.0641 31.2767 51.0293 31.2492C50.9963 31.2199 50.9624 31.1933 50.9275 31.1695C50.8854 31.2777 50.8414 31.3803 50.7955 31.4775C50.7497 31.5747 50.7121 31.648 50.6828 31.6975L50.658 31.6507C50.6837 31.6031 50.7167 31.5334 50.757 31.4417C50.7992 31.3501 50.8404 31.2456 50.8808 31.1282C50.8624 31.1099 50.8533 31.0879 50.8533 31.0622C50.8533 31.0072 50.8689 30.9623 50.9 30.9275C50.9312 30.8927 50.9541 30.8752 50.9688 30.8752C50.9889 30.8752 50.9999 30.8844 51.0018 30.9027C51.0054 30.9192 51.0073 30.9321 51.0073 30.9412C51.0073 30.9504 51.0018 30.9687 50.9908 30.9962C50.9816 31.0219 50.977 31.0375 50.977 31.043C50.977 31.0687 50.9908 31.0925 51.0183 31.1145C51.0476 31.1347 51.0806 31.1585 51.1173 31.186C51.1539 31.2117 51.186 31.2437 51.2135 31.2822C51.2429 31.3189 51.2575 31.3666 51.2575 31.4252C51.2575 31.4802 51.2456 31.5362 51.2218 31.593C51.1998 31.6498 51.1769 31.7039 51.153 31.7552C51.131 31.8066 51.12 31.8515 51.12 31.89C51.12 31.923 51.1283 31.945 51.1448 31.956C51.1613 31.967 51.1805 31.9725 51.2025 31.9725C51.2465 31.9725 51.2914 31.9587 51.3373 31.9312C51.3849 31.9037 51.4308 31.8689 51.4748 31.8267C51.5188 31.7846 51.5582 31.7406 51.593 31.6947C51.6279 31.6471 51.6535 31.6031 51.67 31.5627L51.7058 31.5902C51.6709 31.6672 51.6233 31.7433 51.5628 31.8185C51.5023 31.8918 51.4344 31.9523 51.3593 32C51.2859 32.0477 51.2099 32.0715 51.131 32.0715ZM52.1393 30.812C52.11 30.812 52.0834 30.8047 52.0596 30.79C52.0376 30.7753 52.0266 30.7524 52.0266 30.7212C52.0266 30.6827 52.0486 30.6497 52.0926 30.6222C52.1384 30.5929 52.1833 30.5782 52.2273 30.5782C52.2548 30.5782 52.2768 30.5847 52.2933 30.5975C52.3098 30.6103 52.3181 30.6323 52.3181 30.6635C52.3181 30.6983 52.2988 30.7322 52.2603 30.7652C52.2237 30.7964 52.1833 30.812 52.1393 30.812ZM51.8093 32.0715C51.7378 32.0715 51.6847 32.0486 51.6498 32.0028C51.615 31.9587 51.5976 31.9047 51.5976 31.8405C51.5976 31.7983 51.6049 31.7452 51.6196 31.681C51.6361 31.6168 51.6572 31.5499 51.6828 31.4802C51.7085 31.4087 51.7378 31.3418 51.7708 31.2795C51.8057 31.2172 51.8423 31.1667 51.8808 31.1282C51.9193 31.0879 51.9569 31.0677 51.9936 31.0677C52.0101 31.0677 52.0238 31.0732 52.0348 31.0842C52.0477 31.0934 52.0541 31.1081 52.0541 31.1282C52.0541 31.1502 52.0394 31.186 52.0101 31.2355C51.9826 31.285 51.9496 31.3418 51.9111 31.406C51.8726 31.4702 51.8387 31.538 51.8093 31.6095C51.7818 31.6792 51.7681 31.7461 51.7681 31.8102C51.7681 31.8762 51.7791 31.9202 51.8011 31.9422C51.8231 31.9642 51.857 31.9752 51.9028 31.9752C51.9652 31.9752 52.0312 31.9441 52.1008 31.8817C52.1723 31.8194 52.2475 31.7103 52.3263 31.5545L52.3511 31.582C52.2979 31.7397 52.2209 31.8607 52.1201 31.945C52.0211 32.0293 51.9175 32.0715 51.8093 32.0715ZM52.2389 32.77C52.2206 32.77 52.1995 32.7636 52.1757 32.7508C52.1518 32.7398 52.1317 32.7168 52.1152 32.682C52.0968 32.6472 52.0877 32.5958 52.0877 32.528C52.0877 32.4473 52.1014 32.3419 52.1289 32.2118C52.1564 32.0834 52.194 31.9413 52.2417 31.7855C52.2893 31.6297 52.3443 31.4702 52.4067 31.307C52.469 31.142 52.5359 30.9834 52.6074 30.8312C52.6807 30.6772 52.755 30.5397 52.8302 30.4187C52.9072 30.2959 52.9823 30.1987 53.0557 30.1272C53.129 30.0557 53.1987 30.02 53.2647 30.02C53.3032 30.02 53.3279 30.0319 53.3389 30.0557C53.3517 30.0796 53.3582 30.108 53.3582 30.141C53.3582 30.2198 53.3362 30.306 53.2922 30.3995C53.25 30.493 53.1932 30.5874 53.1217 30.6827C53.0502 30.7762 52.9713 30.8661 52.8852 30.9522C52.799 31.0366 52.7119 31.109 52.6239 31.1695C52.6147 31.1915 52.6056 31.2144 52.5964 31.2382C52.5891 31.2602 52.5808 31.2832 52.5717 31.307C52.5918 31.3107 52.6074 31.3217 52.6184 31.34C52.6312 31.3565 52.6386 31.3748 52.6404 31.395C52.6532 31.4775 52.667 31.5517 52.6817 31.6177C52.6963 31.6819 52.7183 31.7323 52.7477 31.769C52.7788 31.8057 52.8228 31.824 52.8797 31.824C52.9438 31.824 52.9979 31.8011 53.0419 31.7552C53.0859 31.7076 53.1336 31.6407 53.1849 31.5545L53.2262 31.582C53.1803 31.692 53.1217 31.7717 53.0502 31.8212C52.9805 31.8707 52.9191 31.8955 52.8659 31.8955C52.8329 31.8955 52.7981 31.8872 52.7614 31.8707C52.7266 31.8542 52.6936 31.8322 52.6624 31.8047C52.6624 31.9202 52.6496 32.0348 52.6239 32.1485C52.6001 32.2622 52.568 32.3658 52.5277 32.4593C52.4873 32.5528 52.4424 32.6279 52.3929 32.6848C52.3434 32.7416 52.2921 32.77 52.2389 32.77ZM52.6679 31.0567C52.7871 30.9467 52.8897 30.8367 52.9759 30.7267C53.0639 30.6149 53.1317 30.5159 53.1794 30.4297C53.2271 30.3417 53.2509 30.2794 53.2509 30.2427C53.2509 30.2171 53.2381 30.2042 53.2124 30.2042C53.1647 30.2042 53.1107 30.2437 53.0502 30.3225C52.9897 30.3995 52.9264 30.5022 52.8604 30.6305C52.7944 30.7588 52.7302 30.9009 52.6679 31.0567ZM52.3104 32.638C52.3306 32.638 52.3535 32.6197 52.3792 32.583C52.4048 32.5463 52.4296 32.4978 52.4534 32.4373C52.4791 32.3786 52.502 32.3135 52.5222 32.242C52.5423 32.1705 52.5588 32.099 52.5717 32.0275C52.5845 31.956 52.5909 31.8918 52.5909 31.835C52.5909 31.7782 52.5836 31.7268 52.5689 31.681C52.5542 31.6333 52.5304 31.5774 52.4974 31.5132C52.4516 31.6507 52.4103 31.7837 52.3737 31.912C52.337 32.0403 52.3086 32.1558 52.2884 32.2585C52.2682 32.3612 52.2582 32.4437 52.2582 32.506C52.2582 32.594 52.2756 32.638 52.3104 32.638ZM53.2496 32.77C53.2038 32.77 53.1634 32.7572 53.1286 32.7315C53.0938 32.7077 53.0763 32.6719 53.0763 32.6243C53.0763 32.5454 53.1011 32.4776 53.1506 32.4208C53.2019 32.3639 53.2679 32.3117 53.3486 32.264C53.4311 32.2182 53.5182 32.1723 53.6098 32.1265C53.6355 32.0587 53.6612 31.9835 53.6868 31.901C53.7143 31.8167 53.74 31.7241 53.7638 31.6232C53.7052 31.7186 53.6419 31.8011 53.5741 31.8707C53.5081 31.9386 53.4375 31.9725 53.3623 31.9725C53.3092 31.9725 53.2588 31.9551 53.2111 31.9202C53.1653 31.8836 53.1423 31.8267 53.1423 31.7497C53.1423 31.6984 53.1506 31.6388 53.1671 31.571C53.1854 31.5032 53.2074 31.4372 53.2331 31.373C53.2588 31.3088 53.2853 31.2557 53.3128 31.2135C53.3403 31.1713 53.3642 31.1502 53.3843 31.1502C53.3917 31.1502 53.4045 31.153 53.4228 31.1585C53.443 31.164 53.4613 31.1722 53.4778 31.1832C53.4962 31.1924 53.5053 31.2025 53.5053 31.2135C53.4888 31.2373 53.4705 31.2712 53.4503 31.3152C53.4302 31.3592 53.41 31.4087 53.3898 31.4637C53.3715 31.5169 53.3559 31.5692 53.3431 31.6205C53.3303 31.6718 53.3238 31.7158 53.3238 31.7525C53.3238 31.7855 53.3312 31.8121 53.3458 31.8322C53.3605 31.8524 53.3862 31.8625 53.4228 31.8625C53.4577 31.8625 53.4962 31.846 53.5383 31.813C53.5823 31.7782 53.6254 31.7342 53.6676 31.681C53.7116 31.6278 53.7519 31.571 53.7886 31.5105C53.7941 31.4903 53.7987 31.4702 53.8023 31.45C53.8078 31.428 53.8124 31.406 53.8161 31.384C53.8216 31.3583 53.8344 31.329 53.8546 31.296C53.8766 31.2612 53.9105 31.2437 53.9563 31.2437C53.9728 31.2437 53.9921 31.2465 54.0141 31.252C54.0141 31.2813 54.0049 31.3363 53.9866 31.417C53.9701 31.4958 53.9453 31.5884 53.9123 31.6947C53.8812 31.8011 53.8436 31.9102 53.7996 32.022C53.8858 31.989 53.9701 31.9349 54.0526 31.8597C54.1351 31.7827 54.202 31.681 54.2533 31.5545L54.2891 31.582C54.2616 31.67 54.2194 31.747 54.1626 31.813C54.1076 31.8772 54.0453 31.9331 53.9756 31.9807C53.9059 32.0266 53.8372 32.0651 53.7693 32.0963C53.7217 32.2136 53.6694 32.3236 53.6126 32.4263C53.5576 32.5289 53.4989 32.6114 53.4366 32.6738C53.3761 32.7379 53.3138 32.77 53.2496 32.77ZM53.2358 32.682C53.2633 32.682 53.3092 32.6453 53.3733 32.572C53.4393 32.5005 53.509 32.374 53.5823 32.1925C53.5072 32.2328 53.4375 32.2723 53.3733 32.3108C53.3092 32.3511 53.2578 32.3942 53.2193 32.44C53.1808 32.4858 53.1616 32.539 53.1616 32.5995C53.1616 32.6142 53.1671 32.6316 53.1781 32.6518C53.1891 32.6719 53.2083 32.682 53.2358 32.682Z" fill="white"/>
<rect x="53" y="72" width="2" height="1" fill="white"/>
</svg>
